<?xml version="1.0" standalone="no"?>
<!DOCTYPE svg PUBLIC "-//W3C//DTD SVG 20010904//EN"
 "http://www.w3.org/TR/2001/REC-SVG-20010904/DTD/svg10.dtd">
<svg version="1.0" xmlns="http://www.w3.org/2000/svg"
 width="609.000000pt" height="609.000000pt" viewBox="0 0 609.000000 609.000000"
 preserveAspectRatio="xMidYMid meet">
<metadata>
Created by potrace 1.14, written by Peter Selinger 2001-2017
</metadata>
<g transform="translate(0.000000,609.000000) scale(0.100000,-0.100000)"
fill="#000000" stroke="none">
<path d="M3900 5508 c0 -21 -57 -85 -66 -75 -4 4 -2 7 4 7 7 0 12 5 12 10 0
17 -26 11 -45 -10 -20 -22 -35 -26 -35 -9 0 5 5 7 12 3 7 -4 8 -3 4 4 -4 6
-14 8 -23 5 -12 -5 -14 -3 -8 7 5 9 4 11 -4 6 -6 -4 -9 -11 -6 -16 3 -5 -1
-15 -9 -23 -8 -8 -12 -17 -9 -21 4 -3 1 -6 -5 -6 -6 0 -17 7 -26 15 -10 11
-17 12 -22 4 -3 -6 0 -15 7 -20 11 -7 11 -9 1 -9 -7 0 -11 -4 -8 -9 4 -5 -2
-8 -11 -7 -23 4 -45 -16 -29 -26 8 -5 7 -11 -3 -20 -12 -11 -13 -10 -6 2 6 12
5 12 -5 3 -7 -6 -20 -9 -29 -6 -12 3 -12 2 2 -7 14 -9 15 -15 7 -25 -6 -7 -9
-25 -6 -39 3 -18 0 -26 -9 -26 -7 0 -23 -13 -35 -30 -12 -16 -18 -30 -13 -30
5 0 16 -12 25 -27 10 -16 18 -23 18 -16 0 7 6 10 14 7 17 -6 15 -29 -5 -52 -8
-9 -22 -30 -32 -45 -10 -15 -22 -25 -27 -22 -6 4 -10 1 -10 -6 0 -13 -29 -38
-45 -39 -5 0 -3 5 5 11 13 9 13 10 0 6 -8 -2 -14 -11 -12 -20 3 -21 -26 -36
-75 -39 -7 -1 -13 -5 -13 -10 0 -5 -4 -7 -9 -3 -5 3 -24 -8 -42 -25 -19 -16
-39 -30 -46 -30 -6 0 -15 -4 -18 -10 -4 -6 1 -7 12 -4 16 5 15 3 -2 -11 -11
-9 -19 -19 -18 -23 0 -4 -5 -13 -13 -20 -12 -10 -14 -10 -14 2 0 8 6 21 13 28
8 6 11 23 9 36 -4 19 -2 23 8 17 9 -5 11 -4 6 3 -4 7 -3 12 2 12 6 0 13 8 16
17 6 16 6 16 -12 0 -22 -20 -36 -22 -26 -4 9 15 -46 -32 -64 -55 -7 -10 -19
-18 -25 -17 -9 0 -9 2 1 6 6 2 12 13 12 24 0 10 6 19 13 19 7 0 8 3 2 8 -5 4
-10 33 -11 65 0 49 2 57 15 51 37 -16 71 -16 71 -1 0 10 6 13 20 10 22 -6 53
14 44 28 -3 5 2 12 10 15 9 3 16 12 16 19 0 7 6 15 13 18 6 3 -5 12 -25 21
-21 9 -38 21 -38 27 0 7 -9 9 -22 6 -21 -6 -20 -5 4 16 22 18 27 30 25 64 l-1
42 -50 -2 c-49 -2 -51 -1 -50 25 0 15 -2 25 -4 23 -8 -8 -43 16 -37 26 4 5 1
10 -4 10 -21 3 -26 4 -38 12 -8 5 -11 1 -8 -13 2 -11 -1 -22 -6 -25 -5 -4 -6
-12 -2 -18 4 -7 0 -7 -10 1 -11 9 -21 11 -33 4 -15 -8 -15 -9 0 -15 10 -4 15
-3 11 3 -3 6 -1 10 4 10 16 0 13 -15 -4 -30 -19 -16 -49 -19 -57 -6 -5 8 -8 7
-8 -2 0 -7 -5 -10 -11 -6 -8 4 -8 0 0 -15 13 -24 23 -29 15 -7 -4 10 0 13 13
11 10 -2 23 -4 28 -4 6 -1 11 -11 12 -22 2 -20 1 -20 -11 -4 -9 12 -18 15 -27
9 -8 -4 -24 -7 -37 -5 -13 1 -25 -4 -28 -13 -3 -9 -11 -16 -18 -16 -6 0 1 11
16 24 27 24 27 24 3 22 -13 0 -21 -5 -18 -9 3 -4 -1 -15 -8 -23 -10 -12 -9
-16 9 -21 24 -6 30 -23 10 -23 -8 -1 -6 -6 5 -14 14 -11 15 -16 5 -22 -7 -5
-16 -9 -20 -9 -3 0 -9 -3 -13 -7 -8 -8 16 -5 30 4 6 3 19 0 30 -9 19 -13 19
-15 3 -27 -10 -7 -14 -17 -10 -21 4 -5 1 -5 -5 -1 -9 5 -13 0 -12 -16 0 -13
-3 -35 -7 -50 -5 -23 -3 -28 12 -30 32 -2 39 -3 49 -9 18 -10 75 6 75 21 0 4
9 6 20 3 14 -4 20 0 20 11 0 9 4 16 9 16 13 0 19 -43 10 -68 -5 -14 -4 -22 3
-22 6 0 5 -6 -3 -17 -8 -9 -13 -25 -11 -36 2 -10 -1 -17 -6 -13 -5 3 -8 -5 -7
-19 2 -17 -1 -22 -12 -18 -12 5 -12 7 -1 14 7 5 9 9 3 9 -5 0 -16 -4 -23 -9
-11 -6 -10 -10 3 -15 14 -5 15 -9 5 -21 -6 -8 -15 -14 -18 -13 -4 1 -27 -17
-51 -39 -25 -23 -48 -40 -53 -37 -4 3 -8 -2 -8 -10 0 -9 -7 -16 -15 -16 -8 0
-15 8 -15 18 0 14 2 15 10 2 5 -8 10 -10 10 -5 0 6 -4 16 -9 24 -7 11 -10 9
-16 -8 -4 -13 -1 -28 5 -36 11 -14 7 -19 -12 -16 -5 0 -8 -6 -8 -15 0 -8 -4
-12 -10 -9 -5 3 -10 1 -10 -6 0 -7 -3 -10 -6 -7 -3 4 2 18 11 32 9 14 14 30
11 35 -4 5 -2 12 3 15 7 5 8 66 2 123 0 6 -10 15 -21 18 -11 4 -18 10 -16 13
8 14 -23 72 -39 72 -8 0 -15 -6 -15 -12 0 -9 -3 -8 -9 2 -6 8 -7 18 -5 22 3 4
0 8 -5 8 -6 0 -11 6 -11 13 0 17 -36 47 -56 47 -8 0 -13 4 -9 9 3 5 1 12 -4
16 -6 3 -8 -3 -6 -15 2 -11 0 -22 -6 -25 -5 -4 -9 -2 -9 3 0 14 -92 49 -118
45 -17 -2 -21 1 -16 9 6 10 5 10 -8 1 -8 -7 -18 -10 -21 -6 -4 3 -7 2 -7 -4 0
-5 12 -16 27 -24 46 -24 134 -114 122 -126 -8 -8 -7 -13 2 -18 8 -6 10 -4 4 6
-6 11 -4 10 8 -1 8 -8 17 -24 19 -35 2 -11 10 -26 18 -33 8 -8 9 -11 3 -7 -7
3 -13 1 -13 -4 0 -6 4 -11 9 -11 5 0 12 -7 15 -16 3 -8 2 -12 -4 -9 -6 3 -10
1 -10 -4 0 -6 4 -11 8 -11 9 0 9 0 15 -73 4 -47 3 -49 -19 -44 -13 2 -21 0
-18 -4 3 -5 15 -9 27 -10 12 0 17 -3 10 -5 -7 -3 -9 -12 -6 -20 3 -8 0 -20 -6
-28 -6 -7 -8 -16 -4 -19 3 -4 1 -7 -6 -7 -8 0 -11 7 -6 18 5 13 4 14 -6 5 -9
-9 -9 -15 -1 -26 10 -12 7 -14 -17 -13 -16 1 -27 4 -24 8 8 14 -50 106 -64
101 -7 -3 -16 3 -20 13 -4 11 -12 24 -18 30 -12 12 -38 7 -29 -7 3 -5 0 -9 -6
-9 -7 0 -9 -9 -5 -22 5 -22 5 -22 -7 -4 -7 10 -24 30 -38 44 -14 15 -24 30
-22 35 1 5 -2 6 -8 2 -6 -3 -8 -11 -5 -16 4 -5 -1 -9 -10 -9 -9 0 -13 4 -10
10 3 6 -1 7 -9 4 -11 -4 -16 0 -16 10 0 9 -5 16 -11 16 -5 0 -7 -4 -4 -10 9
-15 -4 -12 -21 5 -9 8 -13 19 -9 25 3 5 0 7 -8 4 -20 -7 -63 50 -88 116 -22
59 -24 119 -6 181 13 43 13 45 -7 46 -12 0 -33 3 -48 6 -15 3 -30 2 -33 -3 -3
-5 4 -7 15 -5 18 3 20 1 14 -18 -4 -12 -7 -27 -7 -34 0 -7 -4 -10 -9 -7 -5 3
-5 11 -1 17 5 8 2 8 -9 0 -8 -7 -19 -9 -23 -5 -5 4 -5 1 -1 -5 4 -8 2 -13 -5
-13 -9 0 -9 -4 1 -15 6 -8 9 -19 5 -26 -4 -6 -1 -15 6 -20 10 -6 11 -9 1 -9
-6 0 -21 9 -32 20 -11 11 -20 16 -20 11 0 -6 4 -12 8 -15 13 -8 13 -66 0 -66
-7 0 -2 -7 10 -16 21 -14 33 -52 12 -39 -5 3 0 -10 13 -29 12 -19 30 -38 40
-41 9 -4 17 -11 17 -16 0 -6 5 -7 10 -4 6 3 10 1 10 -5 0 -6 5 -8 10 -5 6 3
10 1 10 -4 0 -6 -5 -11 -12 -11 -6 0 -8 -3 -5 -6 4 -4 13 -2 20 4 10 9 18 8
32 -2 11 -8 26 -11 35 -9 9 4 7 -1 -5 -10 -19 -15 -21 -14 -37 6 l-17 22 5
-25 c2 -14 1 -19 -2 -12 -5 10 -9 9 -19 -5 -11 -15 -11 -21 1 -35 17 -18 5
-31 -16 -17 -13 7 -13 9 0 9 13 0 13 1 0 10 -8 5 -19 10 -25 10 -5 0 -3 -5 5
-10 8 -5 12 -10 7 -10 -4 0 0 -14 9 -31 8 -17 11 -28 6 -25 -6 4 -13 2 -17 -4
-3 -5 -13 -10 -21 -10 -9 0 -25 -10 -36 -22 -11 -13 -17 -17 -13 -10 4 7 0 12
-9 12 -9 0 -16 4 -16 10 0 5 -11 20 -25 34 -14 14 -25 27 -25 30 0 2 -12 17
-27 33 -16 15 -50 54 -78 86 -27 33 -69 78 -92 102 -24 24 -43 49 -43 56 0 7
-3 9 -6 6 -8 -8 -50 44 -46 56 1 5 -2 6 -7 3 -11 -7 -33 19 -23 28 4 4 2 6 -4
4 -10 -3 -104 90 -104 104 0 4 -6 8 -13 8 -13 0 -43 40 -39 53 1 5 -1 6 -6 3
-5 -3 -28 15 -51 40 -34 37 -40 48 -30 60 6 8 9 14 5 14 -3 0 3 9 14 20 11 11
25 20 32 20 6 0 0 9 -13 21 -13 11 -36 31 -51 45 -37 32 -50 31 -37 -3 13 -35
-3 -53 -29 -30 -21 20 -32 22 -32 6 0 -5 4 -8 9 -5 4 3 16 -3 26 -14 18 -19
17 -20 -6 -21 -17 -1 -19 -3 -6 -6 10 -3 14 -9 10 -16 -9 -14 -14 -41 -6 -34
5 5 21 -10 108 -104 17 -18 29 -35 27 -37 -2 -2 8 -12 22 -22 15 -9 23 -20 19
-23 -3 -4 1 -7 11 -7 9 0 15 -4 12 -9 -3 -5 1 -12 10 -15 9 -3 12 -11 8 -18
-4 -7 -4 -10 1 -6 9 8 35 -15 35 -32 0 -6 4 -9 10 -5 5 3 16 -7 24 -22 8 -15
15 -24 16 -18 0 5 8 -2 17 -15 10 -14 17 -28 15 -33 -1 -4 1 -6 6 -5 13 5 84
-80 77 -92 -3 -5 -2 -10 4 -10 5 0 12 6 14 13 3 7 6 5 6 -5 1 -13 -7 -18 -23
-18 -14 0 -28 -4 -31 -10 -4 -6 1 -7 12 -4 13 4 14 3 5 -4 -11 -8 -18 -24 -21
-53 -1 -4 -12 -9 -26 -11 -13 -3 -22 -2 -20 2 3 5 -2 11 -11 14 -9 4 -14 13
-10 21 3 8 1 15 -4 15 -15 0 -12 19 5 37 9 8 14 27 12 41 -4 29 -37 55 -44 34
-3 -8 -11 -5 -24 10 -10 13 -18 20 -19 16 0 -3 -15 9 -33 27 -41 41 -66 40
-89 -5 -14 -27 -15 -37 -5 -49 10 -12 9 -14 -5 -8 -9 3 -19 1 -21 -6 -3 -8
-10 -6 -19 7 -12 15 -17 16 -23 6 -5 -8 -4 -11 2 -7 6 4 13 0 17 -8 3 -8 1
-15 -4 -15 -6 0 -10 -5 -10 -11 0 -8 5 -8 15 1 18 15 18 10 5 -26 -9 -22 -8
-25 3 -16 10 8 13 5 15 -14 2 -32 22 -59 42 -59 8 0 14 -8 14 -18 -2 -13 1
-15 11 -7 9 8 15 8 20 0 3 -5 3 -10 0 -10 -3 0 0 -9 8 -21 8 -11 13 -29 10
-40 -3 -12 0 -19 8 -19 8 -1 1 -7 -16 -14 -26 -11 -32 -10 -42 3 -6 9 -15 13
-19 9 -4 -4 -13 0 -21 10 -12 16 -13 16 -7 -1 4 -10 3 -17 -2 -16 -5 0 -19 -2
-32 -6 -49 -16 -34 -101 20 -112 15 -3 29 -13 31 -22 4 -15 5 -15 6 0 0 9 12
24 26 33 14 9 25 25 25 36 0 11 6 20 14 20 8 0 22 3 32 7 12 4 15 3 10 -5 -4
-6 -2 -21 4 -33 18 -33 -3 -48 -32 -23 -18 15 -20 15 -9 2 11 -15 11 -19 -3
-24 -20 -8 -21 -20 -2 -27 9 -4 13 -1 10 6 -2 8 4 13 17 14 17 2 18 -1 9 -13
-7 -8 -9 -14 -4 -14 5 0 2 -4 -5 -9 -8 -5 -22 -6 -30 -1 -18 9 -94 -29 -92
-45 8 -63 48 -108 88 -101 17 4 21 0 18 -16 -6 -28 -14 -35 -24 -19 -6 10 -10
9 -15 -4 -3 -9 -11 -13 -16 -10 -6 4 -10 3 -9 -2 4 -20 -2 -24 -18 -12 -15 13
-15 12 -3 -8 14 -21 14 -21 28 -2 7 11 18 16 24 13 7 -5 8 -2 3 6 -6 9 -4 11
5 5 10 -6 9 -11 -4 -21 -13 -9 -14 -13 -4 -17 8 -4 7 -6 -4 -6 -11 -1 -18 -9
-18 -21 0 -11 -5 -20 -10 -20 -6 0 -10 -6 -8 -12 1 -7 -7 -38 -17 -68 -23 -66
-21 -58 -30 -97 -4 -18 -11 -33 -16 -33 -5 0 -6 8 -2 18 3 9 3 14 -1 10 -4 -3
-9 -12 -10 -20 -1 -7 -7 -22 -13 -34 -8 -14 -8 -25 -1 -35 8 -11 8 -9 3 6 -5
15 -3 17 5 9 9 -9 9 -17 1 -32 -6 -10 -7 -22 -4 -26 3 -3 1 -6 -6 -6 -8 0 -11
-7 -7 -15 3 -8 1 -15 -4 -15 -6 0 -10 -18 -10 -39 0 -22 -5 -43 -10 -46 -6 -4
-9 -25 -6 -51 3 -24 2 -44 -3 -44 -5 0 -7 -8 -4 -19 3 -10 0 -22 -6 -25 -7 -5
-9 0 -5 11 5 15 4 15 -4 3 -8 -10 -8 -18 0 -27 8 -10 6 -13 -5 -13 -9 0 -19 9
-22 21 -4 11 -9 18 -12 16 -2 -3 0 -14 6 -25 8 -15 7 -23 -3 -31 -7 -6 -16 -8
-20 -4 -4 4 -4 -1 0 -12 6 -15 4 -17 -12 -11 -15 6 -17 5 -6 -6 10 -10 17 -7
36 17 14 17 28 26 33 21 4 -5 2 -11 -4 -13 -7 -3 -13 -9 -13 -14 0 -6 4 -8 10
-4 5 3 3 -7 -5 -22 -10 -19 -11 -31 -3 -40 7 -9 6 -14 -6 -19 -9 -3 -13 -11
-9 -17 3 -5 1 -7 -5 -3 -6 3 -13 -3 -17 -14 -4 -11 -9 -18 -13 -16 -4 2 -14
-3 -22 -12 -13 -14 -12 -15 3 -9 11 4 17 1 17 -9 0 -9 -5 -12 -13 -8 -8 5 -8
2 2 -9 12 -15 11 -17 -2 -17 -9 0 -19 9 -22 21 -4 11 -9 18 -12 16 -2 -3 0
-15 7 -26 10 -20 9 -21 -16 -17 -14 3 -24 2 -20 -1 4 -4 12 -8 19 -9 7 -1 21
-5 32 -9 16 -6 17 -5 5 4 -8 6 -10 11 -4 11 29 0 24 -34 -7 -50 -12 -7 -20 -6
-25 2 -4 6 -3 8 4 4 6 -3 14 -1 18 5 4 7 3 9 -4 5 -5 -3 -13 0 -15 6 -4 10 -6
10 -6 1 -1 -7 -6 -13 -12 -13 -5 0 -7 5 -3 12 5 7 3 8 -5 3 -9 -5 -7 -12 8
-27 16 -15 19 -23 11 -38 -5 -10 -15 -21 -22 -23 -10 -4 -10 -6 0 -6 7 -1 10
-6 6 -13 -4 -6 0 -16 8 -22 13 -10 12 -14 -5 -31 -11 -11 -16 -14 -12 -6 6 10
4 12 -4 7 -6 -4 -10 -15 -9 -24 2 -12 -4 -17 -22 -18 -14 0 -24 -6 -23 -12 2
-7 -2 -12 -7 -12 -6 0 -10 -4 -10 -9 0 -5 8 -8 17 -6 10 1 17 8 16 14 -2 6 2
11 7 11 6 0 10 -7 10 -15 0 -8 -4 -15 -9 -15 -6 0 -8 -9 -6 -20 7 -35 -53 -54
-62 -20 -12 47 -31 -1 -24 -59 2 -8 -2 -10 -11 -5 -10 6 -10 4 1 -9 7 -9 11
-17 7 -17 -3 0 0 -15 8 -34 15 -36 6 -59 -21 -49 -11 4 -12 -1 -7 -23 7 -27 6
-28 -12 -14 -18 14 -18 14 -5 -2 7 -10 17 -16 21 -13 6 4 30 -45 30 -60 0 -1
-7 -2 -15 -2 -8 0 -15 6 -15 14 0 7 -3 12 -7 11 -14 -4 -53 13 -53 23 0 5 -3
8 -7 7 -17 -4 -53 14 -47 24 4 6 2 8 -3 5 -6 -4 -25 6 -42 22 -17 16 -31 27
-31 25 0 -3 -11 6 -23 18 -16 15 -20 25 -13 30 7 5 4 8 -8 8 -12 0 -16 5 -13
14 4 11 1 13 -10 9 -10 -4 -14 -2 -10 4 4 6 0 18 -8 26 -31 32 -8 37 34 8 40
-28 97 -35 119 -13 9 9 24 17 32 17 21 0 38 17 33 32 -3 7 0 13 6 13 6 0 8 7
5 15 -4 8 -9 13 -13 10 -4 -2 -8 2 -8 10 0 8 4 15 9 15 5 0 6 5 2 12 -4 6 -3
8 3 5 6 -4 14 0 17 9 3 8 2 12 -3 9 -5 -3 -12 -1 -16 5 -4 6 -10 8 -14 6 -11
-7 -8 38 3 46 6 4 1 6 -11 5 -12 0 -19 -6 -16 -12 4 -5 3 -7 -2 -3 -4 4 -16 3
-26 -2 -12 -7 -20 -6 -25 2 -4 6 -3 8 3 5 14 -9 24 18 16 40 -5 12 -3 14 7 8
9 -5 11 -4 6 3 -4 7 -13 12 -19 12 -7 0 -12 11 -12 25 0 14 3 25 6 25 4 0 10
7 13 16 5 14 4 15 -9 4 -9 -7 -19 -9 -23 -5 -4 4 -2 9 3 12 24 9 39 23 32 30
-5 4 -12 1 -16 -6 -5 -7 -14 -10 -20 -6 -9 5 -7 11 6 22 17 13 16 13 -5 3 -12
-6 -20 -15 -17 -21 4 -5 -1 -9 -9 -9 -9 0 -16 3 -16 8 1 12 27 42 32 37 2 -3
5 2 5 10 0 22 -15 18 -23 -7 -6 -20 -8 -20 -19 -5 -6 9 -15 14 -18 10 -4 -3
-7 -3 -7 1 0 4 12 19 28 33 30 29 9 21 -24 -9 -19 -17 -22 -17 -28 -3 -3 9 -2
14 2 11 5 -3 9 1 9 9 0 8 -5 11 -11 7 -6 -4 -14 -7 -18 -7 -11 0 -48 -53 -48
-69 0 -9 -6 -15 -12 -13 -9 1 -13 -10 -12 -35 0 -28 -3 -35 -12 -27 -15 13
-24 -10 -24 -63 l0 -41 -22 19 c-18 16 -21 17 -15 2 5 -13 1 -16 -16 -12 -45
10 -67 11 -67 3 0 -5 -6 -6 -14 -3 -8 3 -17 1 -20 -5 -7 -11 13 -61 26 -61 4
0 8 -7 8 -15 0 -26 -19 -14 -48 30 -23 38 -24 46 -7 59 12 9 16 21 13 39 -3
15 -1 24 3 21 5 -3 9 0 9 5 0 6 -8 11 -17 11 -17 1 -17 1 0 14 16 12 16 14 2
20 -9 3 -13 2 -10 -4 3 -6 -1 -7 -10 -4 -12 5 -13 9 -4 20 9 11 8 14 -4 14
-11 0 -14 5 -10 17 4 11 3 14 -6 9 -8 -5 -12 -3 -10 5 1 8 1 21 0 29 -3 32
-21 -14 -21 -55 -1 -37 -2 -39 -15 -21 -8 10 -13 22 -10 25 2 4 -5 7 -15 8
-11 1 -29 11 -42 22 -24 23 -34 26 -43 11 -3 -5 6 -17 20 -26 14 -9 25 -20 25
-25 0 -5 14 -38 30 -73 23 -48 39 -68 64 -80 21 -10 46 -36 67 -70 19 -31 39
-55 44 -54 22 1 33 -3 55 -22 13 -12 30 -18 38 -15 12 4 12 3 3 -9 -7 -8 -8
-16 -4 -19 14 -9 77 1 81 12 6 18 22 12 22 -8 0 -11 6 -21 13 -24 9 -3 9 -10
-2 -28 -13 -22 -13 -23 2 -11 9 8 18 9 21 4 11 -18 -27 -23 -46 -5 -18 16 -19
15 -36 -8 -9 -13 -16 -28 -14 -32 1 -5 -2 -6 -7 -3 -5 3 -12 -1 -15 -10 -3 -8
-2 -12 4 -9 6 3 10 1 10 -5 0 -7 -7 -9 -16 -6 -9 3 -18 6 -20 6 -3 0 -2 5 1
10 11 17 -7 11 -21 -7 -7 -10 -14 -13 -14 -6 0 13 -38 9 -52 -5 -11 -11 7 -62
22 -62 5 0 10 -4 10 -10 0 -5 -9 -10 -20 -10 -11 0 -20 -6 -20 -13 0 -7 -9
-20 -20 -30 -21 -18 -26 -37 -10 -37 6 0 11 1 13 2 1 2 12 -5 25 -14 13 -8 32
-14 43 -11 14 4 19 0 19 -15 0 -12 8 -22 21 -25 12 -3 18 -10 14 -16 -3 -6 1
-14 10 -18 10 -3 21 0 26 8 5 8 9 10 9 4 0 -5 8 2 18 18 10 15 22 24 26 20 4
-5 21 -8 37 -9 20 0 29 5 29 16 0 9 6 22 13 29 7 8 7 11 1 8 -7 -4 -11 3 -11
19 0 18 3 22 10 15 6 -6 15 -11 21 -11 5 0 1 6 -9 14 -11 8 -24 12 -31 9 -6
-2 -14 2 -17 10 -4 10 0 14 11 11 9 -2 35 -6 57 -9 92 -12 109 -16 121 -26 8
-6 14 -6 18 0 4 5 -18 15 -49 22 -30 7 -52 16 -49 21 3 4 -2 8 -10 8 -9 0 -16
5 -16 11 0 5 -5 7 -10 4 -8 -5 -7 -12 2 -23 10 -14 10 -15 -2 -4 -8 6 -27 12
-42 12 -15 0 -28 5 -28 10 0 6 -5 10 -11 10 -5 0 -7 -4 -4 -10 3 -5 1 -10 -4
-10 -17 0 -13 20 5 27 8 3 13 12 10 19 -3 7 0 16 6 20 6 4 8 3 4 -4 -3 -6 -2
-13 4 -17 6 -4 7 -11 4 -17 -5 -7 -1 -9 9 -5 10 3 17 2 17 -3 0 -6 5 -10 10
-10 18 0 10 29 -10 35 -11 3 -21 11 -21 16 -3 19 -5 25 -16 44 -7 11 -13 15
-13 9 0 -5 5 -15 12 -22 9 -9 9 -12 0 -12 -18 0 -27 51 -11 61 9 6 15 4 17 -6
2 -8 8 -15 13 -15 6 0 7 -5 4 -10 -4 -6 -3 -9 2 -8 14 5 73 -45 66 -55 -4 -6
-1 -7 7 -2 7 4 15 4 19 -1 12 -17 140 -84 160 -84 5 0 19 -11 32 -24 24 -25
36 -66 18 -66 -5 0 -7 6 -4 13 4 6 0 4 -8 -6 -9 -11 -22 -15 -33 -11 -14 4
-15 3 -5 -4 8 -6 9 -12 3 -16 -10 -6 -62 48 -62 65 0 5 -6 9 -13 9 -8 0 -12
-11 -12 -27 2 -38 14 -73 26 -73 6 0 7 -4 4 -10 -3 -5 -1 -10 6 -10 7 0 -4
-12 -23 -27 -34 -27 -105 -115 -80 -99 7 4 12 2 12 -3 0 -6 -7 -12 -15 -12
-24 -2 -29 -4 -42 -12 -7 -5 -18 -5 -23 -2 -6 4 -9 2 -8 -5 2 -6 -10 -18 -27
-28 -16 -9 -33 -21 -37 -27 -4 -5 -8 -6 -8 -2 0 8 -21 -7 -47 -35 -9 -9 -20
-15 -25 -12 -4 3 -8 -2 -8 -11 0 -9 -4 -14 -9 -11 -5 3 -12 -1 -15 -10 -5 -13
-9 -14 -21 -4 -12 10 -13 7 -9 -14 3 -19 1 -24 -10 -20 -8 3 -17 0 -22 -7 -4
-8 -3 -10 4 -5 7 4 12 2 12 -3 0 -6 -7 -11 -15 -11 -8 0 -15 7 -15 15 0 8 -4
15 -10 15 -5 0 -10 7 -10 15 0 8 -5 15 -11 15 -5 0 -7 -6 -3 -12 4 -7 -3 -4
-16 7 -16 14 -24 16 -27 8 -8 -23 -54 16 -48 41 2 11 2 15 -1 8 -3 -6 -10 -10
-14 -7 -5 3 -18 -4 -29 -16 -11 -12 -24 -18 -30 -14 -20 12 -32 -5 -20 -27 9
-17 8 -23 -4 -29 -13 -7 -13 -14 -4 -39 9 -23 8 -32 -2 -42 -11 -11 -13 -10
-8 3 3 9 0 16 -8 16 -7 0 -11 -6 -8 -14 3 -7 0 -13 -7 -13 -6 0 -9 -4 -5 -9 3
-6 -4 -8 -16 -6 -12 2 -19 2 -16 -1 3 -3 -8 -20 -25 -36 -30 -29 -31 -31 -13
-44 10 -8 27 -14 38 -14 10 0 15 -5 12 -10 -4 -6 5 -10 19 -10 29 0 33 -12 11
-30 -9 -7 -13 -20 -10 -27 2 -8 0 -24 -6 -35 -9 -17 -8 -24 5 -34 11 -7 13
-15 7 -18 -6 -4 -8 -13 -4 -22 5 -12 10 -12 40 6 19 11 40 20 46 20 7 0 20 9
30 20 9 11 14 20 11 20 -4 0 -1 7 7 16 12 14 14 14 21 -5 4 -11 13 -18 20 -16
7 3 20 -8 29 -24 13 -21 26 -30 53 -33 30 -3 36 -1 36 14 0 24 34 61 60 65 19
3 19 1 5 -20 -13 -21 -13 -23 5 -23 14 0 16 3 8 13 -11 14 2 18 18 6 5 -5 6
-4 2 2 -18 22 -8 34 22 25 18 -5 28 -5 25 0 -3 5 3 18 14 29 12 12 18 27 15
36 -4 9 0 16 7 17 8 0 19 2 24 3 6 2 18 3 28 4 10 0 15 6 12 11 -5 8 -11 8
-19 1 -9 -8 -19 -6 -35 8 -14 12 -18 22 -11 26 15 9 2 25 -15 18 -22 -8 -18
10 5 25 19 12 19 14 4 37 -9 14 -20 23 -24 20 -5 -3 -10 0 -13 7 -2 7 -3 6 -2
-2 0 -8 7 -14 13 -13 7 2 12 -4 12 -12 0 -8 5 -15 11 -15 5 0 7 -4 4 -10 -8
-13 -45 -13 -45 1 0 5 6 7 13 3 8 -5 8 -2 -2 9 -15 18 -26 23 -16 7 3 -5 -1
-10 -10 -10 -13 0 -14 4 -4 23 9 18 9 20 -2 9 -7 -6 -20 -12 -28 -12 -13 1
-12 4 4 17 18 14 18 15 1 9 -10 -3 -26 -1 -35 6 -13 10 -14 10 -4 -2 7 -8 13
-19 13 -25 0 -5 -4 -4 -9 4 -8 12 -15 13 -34 4 -25 -12 -25 -11 -10 18 8 16
19 26 25 23 6 -4 8 -2 5 4 -9 14 3 43 14 36 5 -3 6 -10 3 -16 -4 -7 -2 -8 4
-4 6 4 9 12 6 19 -4 11 66 87 80 87 3 0 25 13 48 29 24 16 46 27 50 25 5 -3 8
-1 8 3 0 5 9 9 19 10 17 1 18 -2 11 -27 -5 -16 -5 -28 -2 -27 4 1 9 -2 10 -8
21 -59 47 -60 48 0 0 29 7 52 20 66 10 12 13 19 5 14 -9 -5 -12 -4 -7 3 4 6
34 17 66 24 67 14 77 23 25 24 -19 0 -32 -2 -30 -6 2 -4 -2 -7 -10 -7 -22 0
-19 9 14 39 25 24 30 26 41 13 7 -8 17 -15 22 -15 5 0 26 -13 46 -29 20 -16
55 -32 77 -36 l40 -8 -30 -10 c-39 -13 -40 -14 -25 -32 10 -12 10 -15 0 -15
-20 0 -63 -51 -52 -62 6 -6 7 -22 2 -38 -5 -16 -6 -31 -2 -34 3 -3 0 -6 -6 -6
-8 0 -9 -7 -2 -24 8 -22 7 -24 -12 -21 -46 9 -72 -33 -36 -59 9 -7 14 -23 12
-41 -2 -18 0 -25 5 -17 12 20 21 -7 10 -33 -4 -11 -8 -15 -8 -9 -1 12 -31 15
-31 3 0 -4 7 -10 16 -13 10 -4 14 -14 11 -25 -4 -17 -2 -18 19 -10 22 8 23 7
15 -10 -6 -10 -8 -21 -5 -23 2 -3 -6 -5 -18 -4 -13 1 -29 -2 -35 -7 -10 -7
-13 -3 -13 15 0 30 -33 71 -46 58 -6 -6 -24 -4 -46 4 -48 16 -59 27 -22 20 16
-3 25 -2 21 2 -7 8 -107 13 -107 5 0 -2 8 -10 17 -18 17 -13 17 -14 -2 -12
-35 2 -60 -1 -74 -10 -12 -8 -12 -12 3 -26 9 -10 15 -24 12 -32 -3 -8 -2 -12
3 -9 5 3 23 -8 40 -26 17 -17 31 -29 31 -25 0 4 10 3 23 -2 13 -5 30 -5 38 0
11 5 16 4 16 -5 0 -9 -12 -13 -34 -12 -18 0 -33 5 -33 9 0 12 -61 -33 -67 -50
-3 -8 0 -19 8 -24 11 -6 8 -9 -8 -9 -15 0 -24 -7 -25 -17 -2 -32 -4 -38 -14
-58 -9 -18 -10 -27 -6 -61 1 -6 10 -11 20 -11 34 0 43 -3 37 -12 -3 -5 0 -13
6 -17 8 -4 9 -3 5 4 -7 12 27 35 38 25 3 -3 6 0 6 7 0 7 3 10 6 7 4 -4 2 -13
-5 -21 -9 -11 -8 -15 4 -20 9 -3 28 7 48 27 29 27 37 30 55 21 12 -6 19 -14
14 -19 -4 -5 -2 -5 5 -2 6 4 9 16 6 26 -3 10 0 22 6 25 5 4 8 14 5 24 -5 14
-4 14 4 2 6 -8 8 -18 6 -22 -3 -4 0 -8 5 -8 15 0 14 -27 -1 -33 -7 -2 -1 -4
14 -3 16 0 28 7 28 14 0 6 5 12 11 12 5 0 8 -4 5 -9 -3 -4 4 -8 16 -7 15 1 22
8 23 23 2 31 12 38 30 23 13 -11 14 -10 9 4 -3 9 -2 16 4 16 17 0 21 48 4 55
-11 4 -12 9 -4 17 8 8 7 16 -1 31 -20 35 -30 43 -84 62 -59 21 -60 28 -5 30
21 1 42 3 47 6 9 5 31 4 38 0 1 -1 21 -4 44 -6 45 -4 160 -40 179 -56 7 -5 22
-12 34 -14 29 -6 38 -15 17 -16 -30 -2 -35 -4 -43 -11 -4 -4 -13 0 -21 10 -11
14 -12 14 -7 1 3 -11 -2 -18 -18 -22 l-22 -6 22 -24 c14 -15 18 -24 10 -25 -7
0 -22 -3 -33 -6 -11 -2 -22 -5 -25 -5 -13 -2 -80 -69 -80 -80 0 -7 5 -9 10 -6
5 3 10 2 10 -2 0 -5 9 -9 20 -9 11 0 20 5 20 10 0 5 6 2 13 -8 10 -14 17 -15
41 -6 25 9 27 9 16 -5 -7 -8 -16 -13 -20 -10 -5 3 -11 2 -14 -3 -3 -5 15 -8
39 -7 50 2 56 -1 73 -35 9 -19 11 -20 7 -4 -4 16 -1 21 12 19 30 -3 53 -16 47
-27 -4 -6 2 -5 14 1 11 6 28 8 38 4 13 -5 15 -3 9 8 -8 12 -6 12 8 0 9 -7 14
-17 11 -22 -3 -5 2 -12 10 -15 9 -3 13 -10 10 -15 -5 -8 10 -13 29 -10 5 1 19
-7 33 -18 17 -13 20 -21 12 -24 -10 -4 -10 -8 2 -16 8 -5 17 -8 21 -5 13 8 19
-28 7 -49 -10 -20 -10 -21 5 -8 15 11 17 11 17 -2 0 -8 -3 -17 -7 -20 -5 -2
-3 -2 4 -1 6 2 17 -4 23 -12 11 -12 7 -18 -11 -16 -3 1 -6 -6 -6 -13 0 -10 4
-12 12 -5 9 7 16 6 25 -4 12 -16 5 -40 -10 -31 -18 11 -41 -7 -34 -27 3 -11 2
-18 -3 -15 -4 3 -17 -1 -28 -9 -10 -8 -16 -14 -12 -14 4 0 3 -10 -4 -21 -10
-20 -9 -21 11 -16 15 4 20 2 17 -7 -3 -7 1 -13 9 -13 7 0 11 4 8 9 -3 4 2 8
10 8 21 0 20 -17 0 -28 -14 -8 -14 -10 -2 -15 8 -3 21 -1 29 4 11 7 11 9 1 9
-7 0 -10 5 -6 11 4 8 9 7 15 -2 4 -7 3 -19 -2 -25 -7 -8 -6 -14 1 -19 8 -5 8
-10 0 -20 -11 -13 -8 -13 29 -6 2 1 -1 7 -7 14 -6 7 -6 20 -1 32 l9 20 -2 -20
c-1 -11 4 -31 11 -44 8 -14 9 -21 2 -17 -6 4 -11 2 -11 -3 0 -6 6 -11 13 -11
9 0 8 -3 -2 -9 -10 -6 -10 -10 -1 -16 8 -5 6 -11 -7 -22 -10 -8 -12 -12 -5 -8
8 4 12 -6 13 -34 1 -23 2 -47 3 -53 1 -7 -3 -16 -9 -20 -6 -5 -5 -11 5 -18 8
-5 11 -10 6 -10 -5 0 -3 -7 4 -15 11 -13 10 -18 -6 -29 -10 -8 -16 -18 -11
-22 4 -4 7 -2 7 4 0 7 4 12 9 12 5 0 4 -11 -2 -24 -10 -21 -13 -22 -23 -8 -7
9 -10 21 -7 28 2 6 -3 14 -13 18 -14 5 -15 4 -4 -9 7 -8 9 -15 4 -15 -4 0 -3
-5 4 -12 7 -7 12 -19 12 -28 -1 -16 -33 -60 -45 -60 -4 0 -2 6 4 13 8 10 7 19
-4 33 -14 18 -15 18 -9 0 6 -16 4 -17 -14 -7 -16 8 -23 8 -28 -1 -4 -7 -4 -10
1 -6 16 15 42 -11 38 -37 -3 -13 -10 -22 -15 -19 -5 4 -3 -7 6 -24 10 -19 29
-35 51 -42 20 -7 35 -18 35 -27 0 -12 8 -14 33 -10 28 5 246 -46 312 -73 34
-14 245 -71 283 -77 39 -5 96 -6 124 0 17 3 129 58 138 67 3 3 11 6 19 8 8 2
27 12 43 23 15 11 28 17 28 13 0 -4 8 -1 18 7 28 23 86 53 78 41 -5 -8 -2 -10
8 -6 9 3 14 9 11 13 -5 8 74 51 94 51 6 0 11 5 11 10 0 6 7 10 15 10 8 0 15 5
15 10 0 6 6 5 14 -2 15 -14 11 -32 -5 -23 -12 8 2 -28 15 -37 6 -4 19 1 29 10
15 13 18 14 15 2 -2 -8 3 -14 10 -12 8 1 11 -1 8 -6 -3 -5 -18 -8 -33 -7 -15
1 -44 -6 -64 -16 -35 -18 -38 -18 -58 0 -11 10 -17 21 -14 25 4 4 0 4 -10 0
-9 -3 -17 -10 -17 -16 0 -5 4 -7 9 -4 4 3 16 -3 25 -13 11 -12 12 -18 4 -18
-7 0 -20 -2 -28 -4 -8 -2 -14 2 -13 9 2 6 -2 12 -8 12 -6 0 -8 -9 -3 -22 3
-13 3 -20 -1 -16 -4 4 -29 -4 -56 -18 -27 -13 -49 -21 -49 -18 0 3 -11 -1 -25
-10 -31 -20 -33 -3 -3 18 12 9 17 16 11 16 -6 0 -18 -7 -26 -15 -8 -8 -17 -12
-19 -9 -3 3 -4 -6 -2 -18 3 -18 -4 -28 -32 -45 -19 -13 -41 -23 -49 -23 -13 0
-25 -21 -25 -44 0 -6 16 -29 35 -49 30 -32 41 -37 79 -37 45 0 68 8 206 72 42
19 87 39 100 43 14 4 55 23 92 41 37 19 73 34 81 34 17 0 47 36 39 47 -4 4 4
-1 16 -12 l24 -20 -5 33 c-3 17 -1 32 4 32 6 0 7 5 4 10 -3 6 -1 10 5 10 7 0
9 -8 5 -19 -3 -11 -1 -22 5 -26 7 -4 7 -12 0 -25 -7 -13 -7 -21 2 -26 7 -5 8
-3 3 7 -5 8 -4 11 0 6 5 -4 10 -17 12 -29 5 -30 22 -49 60 -64 26 -11 39 -11
80 1 57 18 94 19 126 4 17 -8 35 -8 63 1 75 22 97 23 91 6 -4 -9 -2 -16 4 -16
6 0 7 -6 3 -12 -5 -8 -1 -8 10 1 15 13 19 13 27 0 6 -10 9 -11 9 -1 0 7 4 11
10 7 5 -3 16 7 25 22 9 15 14 20 11 11 -3 -10 0 -20 6 -24 6 -4 8 -3 5 3 -4 5
2 19 13 30 10 12 16 24 12 29 -4 4 -1 4 6 0 10 -6 10 -13 -4 -34 l-17 -27 24
20 c13 11 21 16 17 11 -4 -5 0 -15 9 -21 15 -11 16 -15 3 -31 -14 -17 -14 -18
3 -5 16 13 22 8 17 -14 -1 -5 2 -7 6 -3 4 4 13 0 21 -10 13 -15 13 -15 3 5 -5
12 -15 25 -20 28 -6 3 -10 11 -10 17 0 6 10 0 23 -13 12 -13 30 -25 40 -27 20
-3 20 -2 8 32 -9 21 -7 24 8 21 14 -3 17 2 13 21 -2 13 -9 24 -16 24 -6 0 -5
4 3 9 13 8 13 12 1 26 -12 15 -11 16 16 9 16 -4 34 -9 39 -13 6 -3 19 -7 29
-8 10 -2 36 -13 56 -24 30 -17 41 -19 59 -10 11 7 21 16 21 21 0 11 -65 64
-80 66 -5 1 -15 2 -21 3 -5 0 -7 6 -3 13 4 7 8 25 9 40 2 36 14 48 22 20 5
-22 32 -31 34 -12 1 6 3 15 4 20 1 6 3 16 4 23 1 7 6 5 12 -6 16 -27 39 -21
39 10 0 26 0 26 21 7 17 -16 22 -16 29 -4 6 8 10 21 10 29 0 11 3 11 15 1 16
-14 35 -5 35 16 0 11 4 12 19 4 16 -8 21 -6 26 9 4 12 12 17 24 14 13 -3 21 2
26 16 4 13 11 18 22 14 9 -4 21 1 29 11 7 10 17 15 23 12 6 -4 16 2 22 13 7
10 18 17 26 14 7 -3 16 2 19 12 4 9 13 14 20 11 7 -3 26 5 41 18 16 12 62 43
103 69 63 39 79 54 99 97 13 27 28 50 32 50 12 0 59 95 63 128 2 15 20 60 39
101 36 74 36 74 17 98 -10 14 -38 38 -62 55 -24 17 -47 36 -53 43 -5 6 -12 12
-15 11 -6 0 -131 84 -147 100 -7 6 -10 14 -7 17 3 3 -3 4 -13 3 -10 0 -17 5
-15 12 1 7 -5 12 -15 10 -11 -2 -17 2 -15 10 1 8 -2 11 -7 8 -5 -3 -14 1 -21
9 -7 8 -16 15 -21 15 -8 0 -28 14 -63 45 -6 6 -23 16 -38 24 -16 8 -28 18 -28
23 0 4 -5 8 -11 8 -7 0 -19 9 -28 19 -10 11 -24 21 -32 23 -8 2 -22 12 -31 22
-10 10 -18 15 -18 10 0 -5 -4 -4 -8 2 -4 5 -24 20 -45 33 -33 20 -36 25 -25
40 11 14 11 14 -2 4 -12 -9 -20 -8 -39 6 -13 10 -33 16 -44 13 -10 -3 -24 1
-29 9 -8 11 -9 10 -4 -3 3 -10 1 -20 -4 -23 -9 -5 -15 15 -11 38 0 4 -4 7 -9
7 -6 0 -9 -12 -8 -27 2 -22 -1 -28 -17 -27 -11 0 -23 -5 -27 -11 -5 -6 -8 -5
-8 4 0 8 -6 19 -14 25 -32 25 -28 50 14 76 22 14 40 27 40 30 0 4 -10 20 -22
37 -13 17 -30 41 -38 53 -8 12 -20 28 -26 34 -5 6 -19 26 -29 44 -11 17 -23
32 -27 32 -4 0 -8 7 -8 16 0 21 -34 14 -38 -8 -2 -10 9 -29 24 -42 25 -21 27
-26 15 -40 -11 -13 -16 -14 -22 -5 -4 7 -5 18 -2 25 2 7 -5 15 -16 19 -12 3
-22 13 -22 21 -3 28 -7 54 -9 57 -8 9 -6 38 2 44 7 4 8 1 3 -7 -5 -9 -4 -11 4
-6 16 10 3 29 -16 22 -8 -3 -11 -2 -8 3 3 5 1 12 -4 16 -6 3 -8 12 -5 19 3 8
0 17 -5 21 -6 3 -9 11 -6 16 4 5 0 9 -7 10 -7 0 -3 4 10 9 12 5 22 15 22 22 0
10 -3 9 -9 -1 -5 -8 -16 -11 -26 -8 -9 4 -13 11 -10 17 3 5 1 10 -4 10 -6 0
-11 9 -11 20 0 11 -5 20 -12 20 -6 0 -9 3 -6 6 3 3 -12 24 -34 46 -49 50 -67
98 -37 98 17 0 18 -3 9 -21 -7 -11 -10 -23 -7 -25 2 -2 9 7 15 21 10 21 9 27
-3 31 -26 10 -44 -3 -38 -28 3 -14 1 -18 -4 -12 -4 6 -24 20 -43 30 -19 11
-36 28 -38 38 -2 10 1 15 6 12 19 -11 22 27 6 53 l-17 26 26 -18 c30 -20 37
-21 37 -7 0 6 -3 9 -7 8 -12 -4 -54 28 -47 35 4 3 17 -1 30 -10 14 -9 24 -11
24 -5 0 6 12 10 28 9 25 -2 27 0 24 33 -1 23 1 30 7 22 6 -10 10 -7 13 12 4
19 0 27 -13 31 -21 7 -26 40 -7 51 7 5 8 3 3 -6 -11 -17 36 -3 51 16 6 8 16
14 22 14 12 0 48 59 44 73 -1 4 3 7 9 7 5 0 7 5 3 12 -5 7 -2 9 8 6 8 -4 15 0
15 8 0 7 -4 11 -8 8 -4 -2 -10 0 -13 5 -3 5 8 21 25 35 20 17 29 32 25 42 -3
8 -10 13 -15 9 -5 -3 -12 -1 -15 4 -3 5 -16 7 -27 4 -19 -5 -20 -4 -10 18 10
20 10 21 -1 9 -7 -9 -26 -17 -41 -18 -15 -1 -36 -6 -46 -12 -10 -5 -22 -6 -26
-2 -5 4 -5 2 -2 -4 4 -6 0 -25 -8 -42 -11 -22 -21 -29 -35 -25 -16 4 -18 12
-15 45 2 22 12 49 22 61 18 19 18 20 -4 8 -30 -16 -38 -14 -22 6 11 13 11 17
2 20 -7 3 -13 10 -13 18 0 22 -25 36 -40 22 -10 -10 -12 -9 -7 6 4 10 3 16 -2
13 -5 -3 -14 1 -21 8 -14 18 -50 17 -50 -1 0 -7 4 -13 8 -13 5 0 9 -6 10 -12
0 -7 4 -24 7 -38 11 -39 8 -112 -5 -120 -6 -4 -11 -10 -10 -14 0 -3 -3 -14 -8
-22 -7 -12 -14 -14 -28 -6 -23 11 -47 5 -37 -11 4 -7 0 -6 -10 1 -9 8 -21 11
-27 7 -5 -3 -10 -1 -10 6 0 6 8 9 20 6 11 -3 20 -1 20 4 0 5 4 9 10 9 16 0 59
49 47 53 -9 3 -7 9 3 22 14 18 14 18 -12 1 -25 -16 -27 -16 -40 3 -10 14 -22
19 -37 16 -19 -3 -21 -2 -11 10 10 12 10 18 1 29 -10 12 -8 13 9 9 13 -3 19
-11 16 -20 -4 -10 -1 -11 14 -3 10 5 22 16 26 23 6 9 5 9 -7 0 -11 -9 -18 -8
-33 3 -14 10 -16 14 -5 14 12 0 12 2 -1 10 -11 7 -11 10 -2 10 8 0 10 5 6 12
-5 7 -2 9 9 5 12 -4 14 -2 10 10 -5 12 -3 14 7 8 8 -5 11 -4 6 3 -3 5 0 13 6
16 7 3 3 3 -9 1 -12 -3 -24 -1 -27 4 -8 12 28 33 39 23 5 -4 5 -2 2 5 -5 8
-15 8 -37 0 -17 -6 -30 -15 -30 -20 0 -4 -5 -5 -10 -2 -6 4 -8 11 -5 16 4 5 2
9 -4 9 -10 0 -9 25 2 36 6 7 11 -10 8 -28 0 -5 3 -8 9 -8 13 0 13 6 0 31 -6
10 -17 19 -25 19 -21 0 -28 19 -13 37 7 9 8 14 2 10 -7 -4 -14 2 -17 13 -4 14
-13 19 -30 18 -14 -1 -23 -6 -21 -10 3 -4 -1 -8 -9 -8 -20 0 -39 -24 -27 -36
5 -5 3 -17 -6 -29 l-16 -20 4 20 c2 14 -2 19 -14 17 -10 -2 -18 2 -18 8 0 18
-18 11 -25 -10 -4 -11 -12 -18 -18 -14 -7 3 -4 -1 5 -9 16 -12 16 -16 2 -35
-8 -12 -12 -28 -8 -35 5 -8 2 -7 -9 2 -15 12 -17 12 -11 -3 3 -9 9 -16 13 -16
4 0 8 -6 8 -14 0 -8 -16 3 -36 25 -20 22 -43 41 -52 43 -10 1 -24 7 -32 14
-12 10 -16 9 -20 -9 -4 -13 -10 -18 -18 -13 -8 4 -10 3 -5 -4 4 -7 1 -12 -6
-12 -9 0 -10 -3 -2 -8 6 -4 8 -16 4 -26 -6 -19 -16 -8 -135 148 -19 26 -10 34
13 13 10 -10 23 -17 29 -17 6 0 13 -4 15 -9 2 -5 26 -11 53 -14 49 -5 50 -4
49 22 -1 14 -5 34 -9 43 -4 9 -4 22 0 27 3 6 -5 22 -18 35 l-24 24 28 27 29
26 12 -25 c10 -23 13 -24 27 -12 9 8 20 15 26 15 5 0 13 8 17 18 6 17 7 17 13
-2 5 -16 59 -50 118 -74 5 -2 7 13 6 32 -2 20 -1 39 3 42 8 8 -2 45 -13 45 -5
0 -9 5 -9 11 0 7 13 8 39 4 30 -5 42 -2 56 12 10 10 21 18 24 18 3 1 16 4 28
8 35 13 36 36 1 70 -18 18 -31 38 -30 45 2 6 -4 12 -13 12 -8 0 -15 4 -15 10
0 5 -7 7 -15 4 -23 -9 -38 5 -23 23 7 9 14 36 14 59 1 42 0 44 -32 50 -19 3
-40 4 -48 1 -7 -3 -24 2 -37 10 -15 11 -20 12 -14 3 5 -8 1 -18 -10 -27 -11
-7 -15 -13 -9 -13 11 0 -18 -20 -30 -20 -5 0 -3 6 3 14 15 18 -9 39 -34 29
-10 -3 -16 -2 -13 3 3 5 2 18 -1 28 -7 18 -10 17 -37 -11 -17 -16 -37 -27 -44
-25 -7 3 -10 0 -6 -7 4 -6 1 -11 -8 -11 -8 0 -18 -5 -22 -12 -5 -8 -2 -9 9 -5
21 8 22 -3 3 -28 -9 -13 -11 -27 -6 -41 5 -12 6 -25 3 -28 -4 -3 2 -6 13 -7
18 0 18 -1 -1 -9 -19 -8 -19 -9 1 -9 12 -1 25 -8 28 -17 3 -9 2 -12 -5 -9 -5
4 -37 7 -69 7 -33 1 -57 5 -54 9 3 5 -2 12 -10 15 -9 3 -16 10 -16 15 0 4 7 6
15 3 19 -8 27 13 28 81 1 30 6 55 12 55 5 0 4 4 -3 9 -11 6 -10 11 3 25 9 9
20 14 25 11 5 -3 12 -1 15 5 10 16 35 -8 28 -26 -3 -8 0 -14 7 -14 6 0 8 5 5
10 -3 6 -1 10 4 10 6 0 11 -5 11 -12 0 -6 3 -8 7 -4 5 4 -1 14 -11 22 -23 16
-17 25 17 28 17 1 23 6 19 16 -3 8 -2 12 2 8 17 -15 97 84 111 137 28 103 -14
251 -91 317 -13 12 -21 26 -17 31 3 6 1 7 -6 3 -6 -4 -18 -1 -26 8 -13 13 -9
14 36 10 29 -3 60 -9 71 -15 25 -13 52 -4 44 16 -4 13 2 14 34 9 33 -5 40 -4
40 10 0 10 11 19 30 23 38 7 39 31 5 66 -32 31 -17 44 25 22 27 -14 31 -14 36
-1 5 12 10 13 31 3 19 -9 26 -8 34 4 5 8 7 20 4 27 -5 14 -2 14 48 3 30 -7 39
-6 46 8 9 17 7 48 -4 59 -3 3 3 11 14 17 19 10 19 11 -7 52 -15 23 -33 42 -39
43 -7 0 -13 3 -13 8 0 4 -11 12 -25 19 -14 6 -25 8 -25 4 0 -4 -7 -8 -15 -8
-8 0 -15 5 -15 10 0 5 -7 4 -15 -3 -29 -24 -14 5 25 49 26 30 48 45 67 46 15
2 36 6 46 10 12 5 17 3 15 -5 -4 -18 30 -38 40 -23 4 6 16 11 27 10 16 -2 20
4 18 23 -1 18 4 26 15 27 9 1 28 4 42 6 14 3 29 5 34 6 4 0 6 14 4 31 -3 18 0
31 9 34 15 6 6 36 -15 52 -12 9 -13 13 -2 19 9 5 11 4 6 -3 -10 -17 22 -15 40
2 8 8 11 22 8 31 -4 9 -3 15 2 13 5 -1 19 4 32 12 23 16 29 44 11 55 -6 4 -8
13 -5 21 3 8 -4 19 -16 25 -11 6 -17 14 -12 18 13 9 11 72 -3 96 -10 17 -12
17 -13 3z m-260 -213 c0 -12 -19 -12 -23 0 -4 9 -1 12 9 8 7 -3 14 -7 14 -8z
m-2050 -355 c0 -5 -5 -10 -11 -10 -5 0 -7 5 -4 10 3 6 8 10 11 10 2 0 4 -4 4
-10z m405 -281 c17 -23 29 -45 28 -50 -2 -5 3 -8 10 -6 6 1 11 -6 11 -15 -1
-10 4 -14 12 -11 8 3 14 -1 14 -11 0 -9 5 -16 11 -16 5 0 7 -5 4 -10 -3 -6 0
-13 9 -16 8 -3 17 -12 20 -20 5 -12 2 -12 -17 -2 -12 7 -26 11 -31 10 -5 -2
-6 4 -3 12 4 9 1 15 -6 13 -7 -1 -11 4 -9 11 1 8 -2 11 -8 7 -6 -4 -4 -15 6
-30 9 -14 20 -22 25 -19 5 3 9 0 9 -5 0 -15 -17 -14 -32 3 -11 11 -15 11 -25
-3 -8 -10 -12 -12 -13 -3 0 6 -5 12 -11 12 -5 0 -7 -6 -3 -12 6 -10 5 -10 -7
-1 -8 6 -27 10 -42 9 -15 -2 -30 1 -34 7 -3 6 -1 7 5 3 7 -4 12 -3 12 2 0 5
21 8 48 7 26 -2 41 -1 34 2 -6 3 -9 10 -5 16 4 7 -1 6 -10 -2 -25 -20 -31 -8
-7 14 19 18 19 18 -1 46 -20 28 -21 28 -55 14 -19 -8 -34 -11 -34 -7 -1 4 -10
-4 -21 -18 -11 -13 -31 -26 -43 -27 -20 -3 -23 1 -24 34 -1 20 -7 40 -14 44
-7 4 -10 9 -8 11 37 24 53 29 60 18 12 -20 69 -15 88 8 9 12 19 22 22 22 3 0
19 -19 35 -41z m1145 -109 c0 -5 6 -10 13 -10 19 0 100 -78 92 -89 -3 -6 1
-11 9 -11 14 0 18 -11 15 -36 0 -4 5 -10 11 -14 16 -10 17 -163 1 -168 -6 -2
-11 -12 -11 -22 0 -11 -8 -24 -17 -29 -10 -6 -14 -11 -9 -11 11 0 -31 -42 -66
-64 -15 -10 -33 -14 -39 -10 -8 4 -9 3 -5 -4 4 -7 2 -13 -3 -13 -36 -4 -46 -2
-42 11 2 8 4 35 5 59 1 38 -3 47 -25 60 l-26 15 31 21 c24 16 31 29 33 57 2
32 0 35 -18 31 -12 -4 -25 0 -30 8 -7 12 -9 12 -9 0 0 -11 -3 -11 -17 0 -9 8
-14 10 -11 4 3 -5 0 -15 -7 -22 -11 -10 -13 -7 -11 15 1 15 6 34 11 42 8 13 7
13 -10 0 -14 -11 -19 -12 -22 -2 -3 6 -9 10 -13 7 -8 -5 -36 34 -33 46 1 3
-12 4 -28 3 -16 -1 -29 2 -29 6 0 13 39 22 65 16 28 -7 42 9 25 29 -10 12 -9
15 6 16 11 1 23 0 29 -1 66 -13 79 -6 45 25 -23 21 -27 40 -7 32 8 -3 29 -2
48 3 48 11 49 11 49 0z m-1243 -36 c-3 -3 -12 -4 -19 -1 -8 3 -5 6 6 6 11 1
17 -2 13 -5z m846 -18 c9 5 9 4 0 -6 -13 -15 -37 -4 -26 13 5 8 8 8 11 -1 2
-7 9 -9 15 -6z m-1193 -116 c0 -5 -5 -10 -11 -10 -5 0 -7 5 -4 10 3 6 8 10 11
10 2 0 4 -4 4 -10z m-40 -469 c0 -5 -7 -11 -15 -15 -15 -5 -20 5 -8 17 9 10
23 9 23 -2z m1633 -130 c4 -1 8 -9 8 -18 1 -17 2 -17 6 0 2 9 9 17 14 17 14 0
11 -17 -6 -34 -17 -17 -20 -30 -5 -21 7 4 7 -3 0 -19 -7 -19 -6 -26 2 -26 6 0
9 -2 6 -5 -3 -3 -13 -3 -22 1 -12 4 -14 10 -6 19 12 14 3 25 -19 24 -14 0 -14
-1 1 -7 15 -6 15 -9 1 -27 -13 -16 -15 -17 -10 -2 7 20 -3 22 -22 5 -11 -11
-13 -10 -8 5 4 11 3 16 -3 12 -6 -3 -10 -13 -10 -22 0 -22 -13 -8 -17 18 -2
13 1 18 9 13 8 -5 8 -3 2 7 -11 18 -12 52 0 60 4 4 22 5 40 3 17 -1 34 -3 39
-3z m-70 -474 c-3 -6 -1 -7 5 -3 7 4 12 4 12 -1 0 -4 14 -24 30 -43 17 -19 28
-41 25 -48 -3 -7 -1 -10 4 -7 5 3 17 -5 25 -17 20 -28 20 -39 0 -31 -8 3 -13
12 -10 20 3 8 1 11 -4 8 -6 -4 -9 -14 -8 -22 2 -9 -3 -18 -11 -21 -8 -3 -11 0
-7 7 4 6 3 11 -3 11 -5 0 -12 -4 -15 -9 -4 -5 -17 -8 -31 -6 -14 1 -28 -2 -31
-7 -3 -5 -15 0 -25 11 -16 17 -19 33 -17 101 2 44 7 80 11 80 5 0 6 4 3 9 -4
5 -3 16 0 25 5 14 11 11 30 -15 13 -18 21 -37 17 -42z m-2289 -219 l21 -17
-22 6 c-12 3 -25 14 -28 24 -4 11 -11 17 -16 14 -5 -3 -6 1 -2 11 5 15 7 14
16 -2 6 -10 20 -26 31 -36z m2786 -43 c0 -9 -6 -12 -15 -9 -8 4 -12 10 -9 15
8 14 24 10 24 -6z m10 -97 c0 -6 7 -5 16 3 13 10 17 10 25 -2 5 -8 8 -18 8
-24 0 -5 -3 -5 -5 2 -6 13 -35 6 -46 -11 -5 -6 -8 -2 -8 11 0 16 -5 20 -20 16
-11 -3 -20 -1 -20 5 0 5 11 10 25 10 14 0 25 -5 25 -10z m-65 -18 c-3 -5 -12
-10 -18 -10 -7 0 -6 4 3 10 19 12 23 12 15 0z m174 -35 c3 -3 -7 -4 -23 -1
-16 3 -31 8 -35 11 -3 3 7 4 23 1 16 -3 31 -8 35 -11z m-112 -115 c-1 -11 -2
-20 -3 -20 0 0 -9 9 -19 20 -18 19 -17 20 3 20 15 0 20 -6 19 -20z m113 -155
c0 -18 37 -38 56 -31 9 3 16 -4 20 -19 3 -14 9 -25 13 -25 10 0 31 -62 31 -89
0 -19 -8 -13 -45 35 -25 33 -51 66 -58 75 -15 20 -37 57 -37 64 0 3 5 5 10 5
6 0 10 -7 10 -15z m-2344 -89 l39 -13 -32 -5 c-18 -2 -30 -1 -27 4 6 9 -16 6
-68 -7 -23 -6 -28 -4 -28 11 0 14 2 16 9 6 6 -10 10 -8 15 10 6 23 6 23 22 3
16 -19 16 -19 9 5 -7 21 -6 23 7 12 8 -6 33 -18 54 -26z m2329 -16 c3 -11 11
-20 17 -20 5 0 7 -8 4 -17 -4 -10 -4 -15 -1 -11 9 9 45 -23 45 -39 0 -7 5 -13
12 -13 6 0 8 -3 5 -6 -4 -4 2 -15 13 -24 20 -17 20 -17 -3 -50 -26 -39 -42
-47 -44 -23 -1 10 -11 45 -23 78 -11 33 -23 71 -26 85 -3 14 -9 29 -15 35 -12
12 -12 25 0 25 5 0 13 -9 16 -20z m-2455 0 c0 -5 -2 -10 -4 -10 -3 0 -8 5 -11
10 -3 6 -1 10 4 10 6 0 11 -4 11 -10z m712 -236 c-17 -11 -22 -24 -20 -49 1
-18 7 -32 12 -31 48 10 83 20 94 28 8 7 12 7 12 -1 0 -8 5 -9 19 -2 10 6 21 8
24 5 3 -3 8 4 12 15 3 12 11 21 17 21 17 0 -1 -50 -27 -74 -14 -13 -25 -29
-25 -35 0 -7 -4 -9 -10 -6 -8 5 -14 -13 -12 -36 1 -3 -6 -6 -14 -6 -9 0 -13 6
-9 16 5 13 4 14 -7 3 -11 -11 -10 -16 5 -26 17 -14 23 -27 10 -25 -19 3 -36
-2 -30 -8 4 -3 2 -11 -3 -18 -5 -7 -12 -27 -14 -46 -3 -19 -5 -36 -5 -39 -1
-2 -8 6 -17 18 -30 43 -53 18 -45 -46 1 -8 -6 -20 -15 -27 -16 -11 -16 -15 -5
-29 12 -14 12 -16 -3 -10 -9 3 -16 10 -16 15 0 4 -6 6 -14 3 -7 -3 -21 2 -30
11 -9 9 -16 13 -16 8 0 -9 -40 49 -68 99 -12 22 -17 40 -12 49 5 7 6 17 4 21
-3 4 -1 8 5 8 5 0 12 9 16 19 3 11 14 23 25 26 10 3 21 13 24 21 3 8 2 12 -3
9 -5 -3 -13 0 -16 5 -10 16 24 50 43 43 9 -4 13 -2 9 4 -12 19 71 82 108 83
18 0 18 -1 -3 -16z m1953 -74 c-4 -11 -14 -20 -23 -21 -11 0 -12 -2 -4 -6 13
-5 -8 -24 -57 -51 -20 -12 -25 -12 -32 0 -12 19 -23 98 -15 106 11 10 70 9 78
-1 4 -6 13 -3 24 7 16 16 18 16 26 2 5 -9 6 -25 3 -36z m-2615 20 c0 -5 -4
-10 -10 -10 -5 0 -10 5 -10 10 0 6 5 10 10 10 6 0 10 -4 10 -10z m316 -39 c0
-11 -4 -17 -8 -15 -12 8 -4 -34 9 -47 6 -6 9 -18 6 -25 -10 -28 4 -44 31 -35
28 11 40 3 24 -16 -6 -7 -8 -16 -5 -20 4 -3 2 -12 -4 -20 -7 -8 -8 -13 -1 -13
5 0 7 -13 3 -31 -5 -27 -11 -32 -40 -35 -19 -3 -45 -15 -59 -29 -22 -23 -22
-30 1 -26 48 9 67 7 73 -8 4 -9 6 -19 6 -23 -1 -5 2 -8 6 -8 4 0 8 -10 9 -22
0 -13 -1 -17 -4 -10 -3 6 -9 10 -14 6 -5 -3 -9 0 -9 6 0 6 -4 8 -10 5 -5 -3
-10 -1 -10 4 0 6 -3 10 -7 10 -21 -3 -33 2 -27 13 4 7 3 8 -5 4 -12 -8 -101
43 -101 57 0 5 -4 5 -10 2 -5 -3 -10 1 -10 9 0 8 -9 18 -20 21 -11 3 -20 11
-20 17 0 6 3 8 7 5 3 -4 11 3 17 16 7 13 22 22 36 23 45 2 49 4 44 19 -6 16
29 55 50 55 7 0 7 3 -1 8 -7 4 -10 16 -8 27 2 11 4 24 4 28 1 5 6 5 13 1 7 -4
8 -3 4 5 -4 6 0 23 8 36 20 30 22 31 22 6z m2489 -51 c1 -15 -1 -17 -12 -9 -7
6 -10 15 -7 20 3 5 -2 12 -10 15 -9 3 -16 10 -16 16 0 18 44 -22 45 -42z m-76
-67 c-8 -9 -6 -11 10 -8 15 3 21 -1 21 -13 0 -10 9 -23 20 -30 11 -7 20 -19
20 -27 0 -8 5 -15 10 -15 6 0 14 -8 17 -17 4 -10 13 -23 21 -29 13 -9 12 -14
-6 -32 -19 -19 -19 -21 -2 -19 10 1 17 4 14 8 -2 4 -1 10 4 13 4 2 13 -3 19
-13 11 -17 -5 -53 -24 -52 -4 1 -17 -2 -27 -5 -13 -5 -26 1 -38 16 -23 28 -23
18 -1 -18 l17 -27 -28 25 c-27 23 -28 24 -17 3 7 -14 8 -24 1 -28 -5 -3 -10
-2 -10 2 0 5 -7 18 -16 29 -14 18 -15 18 -4 -3 7 -15 7 -23 1 -23 -6 0 -8 -7
-4 -16 5 -14 3 -14 -15 2 -12 9 -18 22 -15 27 3 5 9 3 14 -4 6 -10 9 -10 9 -2
0 16 -17 26 -25 13 -4 -6 -10 -8 -14 -6 -4 3 -8 -1 -8 -9 0 -8 4 -12 9 -9 4 3
8 1 8 -5 0 -5 -4 -13 -10 -16 -5 -3 -10 -1 -10 4 0 6 -7 11 -15 11 -8 0 -15
-4 -15 -10 0 -5 5 -10 12 -10 6 0 8 -3 5 -6 -4 -4 -13 -1 -21 5 -16 14 -32 -2
-20 -21 4 -7 3 -8 -5 -4 -7 4 -9 17 -6 29 5 19 5 20 -5 5 -6 -10 -16 -18 -21
-18 -6 0 -7 5 -4 11 4 6 -2 5 -13 -2 -12 -7 -18 -18 -15 -24 3 -5 0 -4 -7 2
-12 11 -11 15 6 28 12 10 14 14 4 13 -8 -2 -15 6 -16 17 -1 11 -5 53 -9 94 -4
41 -8 82 -10 93 -2 11 2 18 11 18 8 0 12 -4 9 -10 -3 -5 0 -10 8 -10 8 0 17
-9 20 -20 5 -18 8 -19 30 -9 14 6 31 25 38 40 9 23 14 27 25 18 11 -9 14 -8
14 5 0 9 5 16 12 16 6 0 8 3 5 7 -11 10 10 29 32 29 15 0 17 -4 10 -13z
m-2221 -158 c-2 -3 -15 2 -29 9 -13 7 -29 11 -36 9 -13 -5 -26 24 -13 32 5 3
6 17 4 32 -4 22 2 17 36 -26 23 -29 40 -54 38 -56z m-358 10 c0 -2 -16 2 -35
7 -19 6 -32 15 -30 19 5 7 65 -17 65 -26z m-95 4 c4 -5 12 -8 18 -6 21 7 93
-19 138 -50 24 -17 54 -33 67 -37 12 -4 22 -12 22 -17 0 -6 4 -8 9 -5 4 3 17
-1 27 -9 18 -14 18 -14 -5 -15 -14 0 -33 8 -44 18 -15 12 -18 13 -12 2 7 -12
6 -13 -7 -3 -8 7 -18 10 -21 6 -4 -3 -7 -2 -7 3 0 6 -22 18 -50 28 -32 12 -47
22 -43 29 4 7 0 7 -9 -1 -10 -8 -19 -9 -22 -3 -4 5 -15 10 -26 10 -11 1 -29 1
-40 2 -11 0 -22 4 -25 10 -4 5 -12 9 -18 9 -7 0 -6 -4 3 -10 20 -13 4 -13 -21
1 -25 13 -16 28 16 25 13 -2 24 0 23 3 -2 22 16 29 27 10z m-601 -24 c-4 -8
-8 -15 -10 -15 -2 0 -4 7 -4 15 0 8 4 15 10 15 5 0 7 -7 4 -15z m1006 -74 c0
-17 -18 -21 -24 -6 -3 9 0 15 9 15 8 0 15 -4 15 -9z m23 -18 c8 -8 -25 -33
-35 -27 -4 3 -2 11 5 19 14 16 21 18 30 8z m7 -44 c5 9 9 6 13 -9 5 -18 2 -20
-16 -14 -30 9 -31 10 -22 31 8 17 8 17 13 -1 3 -13 6 -15 12 -7z m45 -28 c3
-5 2 -12 -3 -15 -5 -3 -9 1 -9 9 0 17 3 19 12 6z m1354 -274 c6 -8 8 -17 4
-20 -3 -4 1 -7 10 -7 10 0 17 -3 17 -7 0 -7 54 -64 103 -109 18 -17 18 -18 -5
-30 -12 -7 -18 -14 -13 -14 6 0 3 -4 -5 -10 -9 -5 -19 -5 -25 0 -7 6 -24 6
-44 0 -26 -7 -38 -5 -66 14 -19 13 -31 27 -27 32 4 5 -1 2 -10 -5 -15 -11 -18
-11 -18 -1 0 8 -3 10 -7 7 -9 -10 -34 14 -26 26 3 6 1 7 -6 3 -9 -6 -9 -11 1
-23 11 -14 10 -15 -10 -9 -12 4 -36 8 -52 8 -17 1 -33 5 -36 10 -3 4 -15 8
-27 8 -31 0 -15 12 98 70 55 28 104 56 110 61 12 12 21 11 34 -4z m1075 -922
c17 -17 21 -27 13 -34 -8 -6 -17 1 -29 25 -21 40 -17 42 16 9z"/>
<path d="M1825 4630 c-3 -6 1 -7 9 -4 18 7 21 14 7 14 -6 0 -13 -4 -16 -10z"/>
<path d="M1871 4625 c-20 -10 -21 -13 -7 -18 10 -4 15 -3 12 2 -3 5 1 11 8 14
8 3 17 1 20 -6 3 -9 5 -8 5 1 1 8 6 10 14 6 6 -4 8 -3 4 1 -12 14 -31 14 -56
0z"/>
<path d="M1835 4590 c-3 -6 1 -7 9 -4 18 7 21 14 7 14 -6 0 -13 -4 -16 -10z"/>
<path d="M3196 4208 c2 -4 14 -5 26 -3 32 7 32 13 -1 11 -16 0 -27 -4 -25 -8z"/>
<path d="M3209 4173 c-13 -16 -12 -17 4 -4 9 7 17 15 17 17 0 8 -8 3 -21 -13z"/>
<path d="M3070 3208 c17 -21 11 -29 -12 -18 -21 10 -21 10 -6 -3 10 -8 15 -17
11 -20 -3 -4 -12 -2 -20 4 -9 9 -13 8 -13 0 0 -6 5 -11 11 -11 5 0 7 -6 3 -12
-6 -10 -4 -10 7 -2 8 5 24 9 36 8 12 0 20 2 18 7 -3 4 4 11 16 14 11 4 18 9
15 12 -3 3 -17 -2 -30 -11 -32 -20 -42 -21 -26 0 11 12 10 18 -3 30 -9 8 -12
9 -7 2z"/>
<path d="M1433 1985 c0 -8 4 -12 9 -9 5 3 6 10 3 15 -9 13 -12 11 -12 -6z"/>
<path d="M4096 1913 c-6 -14 -5 -15 5 -6 7 7 10 15 7 18 -3 3 -9 -2 -12 -12z"/>
<path d="M4070 1860 c6 -11 15 -18 19 -16 4 3 21 10 36 16 15 6 25 13 22 16
-3 3 -15 1 -26 -6 -15 -8 -27 -8 -42 0 -19 11 -20 10 -9 -10z"/>
<path d="M3876 1831 c-3 -5 2 -15 12 -22 15 -12 16 -12 5 2 -7 9 -10 19 -6 22
3 4 4 7 0 7 -3 0 -8 -4 -11 -9z"/>
<path d="M2950 1351 c0 -6 4 -13 10 -16 6 -3 7 1 4 9 -7 18 -14 21 -14 7z"/>
<path d="M2975 1350 c3 -5 8 -10 11 -10 2 0 4 5 4 10 0 6 -5 10 -11 10 -5 0
-7 -4 -4 -10z"/>
<path d="M3833 5503 c4 -3 -1 -12 -11 -20 -15 -13 -15 -13 6 -3 19 9 23 30 5
30 -4 0 -3 -3 0 -7z"/>
<path d="M3856 5483 c-6 -14 -5 -15 5 -6 7 7 10 15 7 18 -3 3 -9 -2 -12 -12z"/>
<path d="M3776 5473 c-6 -14 -5 -15 5 -6 7 7 10 15 7 18 -3 3 -9 -2 -12 -12z"/>
<path d="M3790 5449 c0 -5 5 -7 10 -4 6 3 10 8 10 11 0 2 -4 4 -10 4 -5 0 -10
-5 -10 -11z"/>
<path d="M3697 5444 c-4 -4 -4 -11 -1 -15 7 -12 34 -11 34 1 0 5 -7 6 -17 3
-11 -4 -14 -3 -9 5 8 13 3 16 -7 6z"/>
<path d="M1438 5393 c7 -3 16 -2 19 1 4 3 -2 6 -13 5 -11 0 -14 -3 -6 -6z"/>
<path d="M3617 5388 c2 -5 13 -8 24 -8 10 0 19 3 19 8 0 4 -11 7 -24 7 -13 0
-22 -3 -19 -7z"/>
<path d="M3596 5372 c-3 -4 4 -9 15 -9 23 -2 25 3 4 10 -8 4 -16 3 -19 -1z"/>
<path d="M3570 5354 c0 -2 9 -8 20 -14 11 -6 20 -7 20 -2 0 6 -9 12 -20 15
-11 3 -20 3 -20 1z"/>
<path d="M3090 5335 c0 -8 4 -15 10 -15 5 0 7 7 4 15 -4 8 -8 15 -10 15 -2 0
-4 -7 -4 -15z"/>
<path d="M3561 5303 c-1 -17 16 -25 25 -12 4 7 3 9 -4 5 -5 -3 -13 0 -15 6 -4
9 -6 10 -6 1z"/>
<path d="M3020 5291 c0 -9 30 -24 36 -18 2 1 -6 8 -16 15 -11 7 -20 8 -20 3z"/>
<path d="M3215 5290 c-3 -5 -1 -10 4 -10 6 0 11 5 11 10 0 6 -2 10 -4 10 -3 0
-8 -4 -11 -10z"/>
<path d="M3553 5265 c0 -7 6 -11 14 -8 7 3 13 6 13 8 0 2 -6 5 -13 8 -8 3 -14
-1 -14 -8z"/>
<path d="M3519 5243 c-13 -16 -12 -17 4 -4 9 7 17 15 17 17 0 8 -8 3 -21 -13z"/>
<path d="M3565 5240 c-3 -6 1 -7 9 -4 18 7 21 14 7 14 -6 0 -13 -4 -16 -10z"/>
<path d="M3539 5238 c0 -2 -2 -13 -3 -25 -2 -19 0 -21 12 -11 9 8 10 14 3 16
-6 2 -9 8 -5 13 3 5 3 9 0 9 -3 0 -6 -1 -7 -2z"/>
<path d="M2185 5110 c-3 -6 1 -7 9 -4 18 7 21 14 7 14 -6 0 -13 -4 -16 -10z"/>
<path d="M2958 5079 c-10 -10 -15 -19 -10 -19 10 1 42 26 42 34 0 11 -15 5
-32 -15z"/>
<path d="M2164 5065 c-4 -8 -10 -13 -14 -10 -5 3 -11 1 -14 -4 -4 -5 1 -8 10
-7 15 2 42 36 29 36 -3 0 -8 -7 -11 -15z"/>
<path d="M2137 5024 c-7 -8 15 -44 27 -44 5 0 2 8 -7 18 -10 10 -14 22 -10 25
3 4 4 7 1 7 -2 0 -7 -3 -11 -6z"/>
<path d="M2950 5019 c0 -5 5 -7 10 -4 6 3 10 8 10 11 0 2 -4 4 -10 4 -5 0 -10
-5 -10 -11z"/>
<path d="M3479 5003 c-13 -17 -13 -17 6 -3 11 8 22 16 24 17 2 2 0 3 -6 3 -6
0 -17 -8 -24 -17z"/>
<path d="M3430 5006 c0 -2 8 -10 18 -17 15 -13 16 -12 3 4 -13 16 -21 21 -21
13z"/>
<path d="M1556 4965 c-3 -9 -10 -14 -15 -10 -18 10 -21 -13 -3 -26 9 -7 14 -9
9 -4 -4 4 0 17 10 27 9 10 14 21 11 23 -3 3 -8 -1 -12 -10z"/>
<path d="M3424 4965 c-4 -8 -11 -12 -17 -8 -6 4 -7 1 -2 -7 5 -8 3 -11 -6 -8
-8 3 -13 11 -11 17 1 7 -2 10 -8 6 -6 -4 -5 -13 2 -25 9 -14 15 -16 26 -8 15
13 35 48 27 48 -3 0 -8 -7 -11 -15z"/>
<path d="M3550 4969 c0 -5 5 -7 10 -4 6 3 10 8 10 11 0 2 -4 4 -10 4 -5 0 -10
-5 -10 -11z"/>
<path d="M2115 4950 c-3 -5 -1 -10 4 -10 6 0 11 5 11 10 0 6 -2 10 -4 10 -3 0
-8 -4 -11 -10z"/>
<path d="M3436 4943 c-6 -14 -5 -15 5 -6 7 7 10 15 7 18 -3 3 -9 -2 -12 -12z"/>
<path d="M3335 4931 c3 -5 -2 -12 -10 -14 -12 -4 -12 -5 1 -3 19 1 32 26 14
26 -6 0 -9 -4 -5 -9z"/>
<path d="M1510 4916 c0 -2 7 -7 16 -10 8 -3 12 -2 9 4 -6 10 -25 14 -25 6z"/>
<path d="M1505 4890 c3 -5 11 -10 16 -10 6 0 7 5 4 10 -3 6 -11 10 -16 10 -6
0 -7 -4 -4 -10z"/>
<path d="M3293 4880 c-11 -16 -10 -18 1 -14 15 6 30 34 18 34 -4 0 -13 -9 -19
-20z"/>
<path d="M2133 4865 c0 -8 4 -12 9 -9 5 3 6 10 3 15 -9 13 -12 11 -12 -6z"/>
<path d="M3095 4870 c-3 -5 -1 -10 4 -10 6 0 11 5 11 10 0 6 -2 10 -4 10 -3 0
-8 -4 -11 -10z"/>
<path d="M3075 4851 c4 -8 2 -17 -6 -22 -9 -6 -10 -9 -2 -9 19 0 27 21 13 33
-10 9 -11 9 -5 -2z"/>
<path d="M1810 4834 c0 -13 18 -39 24 -34 2 3 -2 14 -10 24 -8 11 -14 16 -14
10z"/>
<path d="M3055 4787 c-10 -14 -14 -16 -11 -5 5 17 -17 19 -31 3 -4 -4 -3 -5 3
-2 7 4 14 0 18 -8 8 -21 24 -19 31 6 5 16 10 18 21 8 8 -7 14 -7 14 -1 0 21
-29 20 -45 -1z"/>
<path d="M1794 4777 c0 -13 6 -24 13 -24 9 0 10 4 4 10 -5 5 -7 16 -4 23 3 8
1 14 -4 14 -5 0 -9 -10 -9 -23z"/>
<path d="M2993 4759 c-2 -23 3 -25 10 -4 4 8 3 16 -1 19 -4 3 -9 -4 -9 -15z"/>
<path d="M3006 4735 c-9 -14 -13 -25 -9 -25 10 0 36 40 30 46 -2 3 -12 -7 -21
-21z"/>
<path d="M2050 4736 c0 -2 7 -7 16 -10 8 -3 12 -2 9 4 -6 10 -25 14 -25 6z"/>
<path d="M2971 4724 c0 -11 3 -14 6 -6 3 7 2 16 -1 19 -3 4 -6 -2 -5 -13z"/>
<path d="M2730 4709 c0 -5 5 -7 10 -4 6 3 10 8 10 11 0 2 -4 4 -10 4 -5 0 -10
-5 -10 -11z"/>
<path d="M2071 4707 c2 -1 13 -9 24 -17 19 -14 19 -14 6 3 -7 9 -18 17 -24 17
-6 0 -8 -1 -6 -3z"/>
<path d="M2245 4700 c-4 -6 -11 -7 -17 -4 -7 4 -8 2 -4 -5 6 -9 11 -9 22 0 14
11 18 19 10 19 -3 0 -8 -5 -11 -10z"/>
<path d="M2537 4685 c-4 -8 -3 -16 1 -19 4 -3 9 4 9 15 2 23 -3 25 -10 4z"/>
<path d="M2753 4645 c0 -8 4 -12 9 -9 5 3 6 10 3 15 -9 13 -12 11 -12 -6z"/>
<path d="M2153 4617 c15 -21 23 -37 17 -37 -6 0 -8 -5 -4 -11 9 -14 24 8 24
36 0 17 -2 17 -10 5 -9 -13 -10 -13 -10 0 0 8 -10 21 -22 29 -20 13 -20 10 5
-22z"/>
<path d="M2209 4638 c-10 -40 3 -60 24 -39 9 9 7 10 -8 5 -17 -7 -18 -6 -7 8
9 11 10 18 2 23 -5 3 -10 5 -11 3z"/>
<path d="M1502 4610 c0 -14 2 -19 5 -12 2 6 2 18 0 25 -3 6 -5 1 -5 -13z"/>
<path d="M1439 4603 c-13 -16 -12 -17 4 -4 9 7 17 15 17 17 0 8 -8 3 -21 -13z"/>
<path d="M1468 4593 c7 -3 16 -2 19 1 4 3 -2 6 -13 5 -11 0 -14 -3 -6 -6z"/>
<path d="M2690 4590 c0 -5 5 -10 11 -10 5 0 7 5 4 10 -3 6 -8 10 -11 10 -2 0
-4 -4 -4 -10z"/>
<path d="M1455 4570 c3 -5 8 -10 11 -10 2 0 4 5 4 10 0 6 -5 10 -11 10 -5 0
-7 -4 -4 -10z"/>
<path d="M2745 4570 c3 -5 8 -10 11 -10 2 0 4 5 4 10 0 6 -5 10 -11 10 -5 0
-7 -4 -4 -10z"/>
<path d="M1636 4517 c3 -10 9 -15 12 -12 3 3 0 11 -7 18 -10 9 -11 8 -5 -6z"/>
<path d="M1576 4442 c-3 -5 1 -9 9 -9 8 0 12 4 9 9 -3 4 -7 8 -9 8 -2 0 -6 -4
-9 -8z"/>
<path d="M1530 4425 c14 -8 30 -14 35 -14 6 0 -1 6 -15 14 -14 8 -29 14 -35
14 -5 0 1 -6 15 -14z"/>
<path d="M1506 4412 c-3 -5 1 -9 9 -9 8 0 12 4 9 9 -3 4 -7 8 -9 8 -2 0 -6 -4
-9 -8z"/>
<path d="M1495 4381 c-3 -5 -2 -12 3 -15 5 -3 9 1 9 9 0 17 -3 19 -12 6z"/>
<path d="M1566 4252 c-3 -5 1 -9 9 -9 8 0 15 4 15 9 0 4 -4 8 -9 8 -6 0 -12
-4 -15 -8z"/>
<path d="M1540 4184 c0 -13 18 -39 24 -34 2 3 -2 14 -10 24 -8 11 -14 16 -14
10z"/>
<path d="M1523 4143 c9 -2 15 -8 12 -13 -3 -4 2 -11 10 -14 13 -4 14 -2 5 14
-6 11 -18 19 -28 19 -16 -1 -15 -2 1 -6z"/>
<path d="M1516 4107 c3 -10 9 -15 12 -12 3 3 0 11 -7 18 -10 9 -11 8 -5 -6z"/>
<path d="M1509 4060 c9 -16 3 -43 -7 -36 -4 2 -8 -9 -8 -25 -1 -16 3 -26 8
-23 5 3 7 11 5 18 -3 6 1 20 9 30 7 11 11 23 8 27 -3 5 0 9 5 9 6 0 11 4 11 8
0 4 -9 8 -19 8 -14 0 -17 -4 -12 -16z"/>
<path d="M3306 4012 c-7 -12 12 -38 21 -29 4 5 1 12 -6 16 -11 7 -11 10 0 14
9 3 10 6 2 6 -6 1 -14 -3 -17 -7z"/>
<path d="M3360 4015 c0 -2 6 -8 13 -14 10 -8 14 -7 14 2 0 8 -6 14 -14 14 -7
0 -13 -1 -13 -2z"/>
<path d="M3120 3970 c-8 -5 -10 -10 -5 -10 6 0 17 5 25 10 8 5 11 10 5 10 -5
0 -17 -5 -25 -10z"/>
<path d="M1446 3928 c3 -4 9 -8 15 -8 5 0 9 4 9 8 0 5 -7 9 -15 9 -8 0 -12 -4
-9 -9z"/>
<path d="M3116 3913 c-6 -14 -5 -15 5 -6 7 7 10 15 7 18 -3 3 -9 -2 -12 -12z"/>
<path d="M1435 3871 c-3 -5 -1 -12 5 -16 15 -9 12 -28 -2 -19 -7 4 -10 4 -6
-1 4 -4 3 -14 -4 -22 -6 -7 -8 -16 -4 -20 3 -3 6 -1 6 6 0 7 5 9 10 6 6 -4 10
-3 9 2 -1 4 2 17 6 27 6 13 4 21 -3 24 -7 2 -10 8 -6 13 3 5 3 9 0 9 -3 0 -7
-4 -11 -9z"/>
<path d="M3115 3851 c-3 -5 -2 -12 3 -15 5 -3 9 1 9 9 0 17 -3 19 -12 6z"/>
<path d="M1398 3733 c7 -3 16 -2 19 1 4 3 -2 6 -13 5 -11 0 -14 -3 -6 -6z"/>
<path d="M1410 3710 c0 -5 5 -10 11 -10 5 0 7 5 4 10 -3 6 -8 10 -11 10 -2 0
-4 -4 -4 -10z"/>
<path d="M1410 3650 c0 -5 5 -10 10 -10 6 0 10 5 10 10 0 6 -4 10 -10 10 -5 0
-10 -4 -10 -10z"/>
<path d="M1376 3629 c3 -5 10 -6 16 -3 7 5 9 -2 4 -22 -5 -24 -4 -26 5 -11 13
22 8 40 -14 43 -9 1 -15 -2 -11 -7z"/>
<path d="M3540 3490 c-8 -5 -10 -10 -5 -10 6 0 17 5 25 10 8 5 11 10 5 10 -5
0 -17 -5 -25 -10z"/>
<path d="M1366 3475 c-11 -8 -15 -15 -9 -15 6 0 16 7 23 15 16 19 11 19 -14 0z"/>
<path d="M3550 3470 c-9 -6 -10 -10 -3 -10 6 0 15 5 18 10 8 12 4 12 -15 0z"/>
<path d="M1340 3441 c0 -7 -5 -9 -12 -5 -7 5 -8 3 -3 -5 5 -9 10 -10 18 -2 6
6 8 14 4 18 -4 3 -7 1 -7 -6z"/>
<path d="M3555 3429 c-11 -16 -1 -19 13 -3 7 8 8 14 3 14 -5 0 -13 -5 -16 -11z"/>
<path d="M1360 3420 c-8 -5 -12 -11 -10 -14 3 -2 14 2 24 10 22 15 10 19 -14
4z"/>
<path d="M1317 3409 c7 -7 15 -10 18 -7 3 3 -2 9 -12 12 -14 6 -15 5 -6 -5z"/>
<path d="M3574 3412 c4 -3 14 -7 22 -8 9 -1 13 0 10 4 -4 3 -14 7 -22 8 -9 1
-13 0 -10 -4z"/>
<path d="M1294 3389 c-4 -7 -3 -9 4 -5 6 3 13 -2 15 -11 4 -16 5 -16 6 -1 1
21 -15 32 -25 17z"/>
<path d="M3276 3388 c3 -4 11 -5 19 -1 21 7 19 12 -4 10 -11 0 -18 -5 -15 -9z"/>
<path d="M3160 3370 c0 -5 5 -10 10 -10 6 0 10 5 10 10 0 6 -4 10 -10 10 -5 0
-10 -4 -10 -10z"/>
<path d="M3291 3366 c-9 -10 -8 -16 4 -26 11 -9 15 -9 15 -1 0 7 5 9 10 6 6
-3 10 -1 10 5 0 7 -8 9 -22 4 -20 -6 -21 -5 -9 10 7 9 11 16 8 16 -2 0 -10 -6
-16 -14z"/>
<path d="M3610 3369 c0 -5 5 -7 10 -4 6 3 10 8 10 11 0 2 -4 4 -10 4 -5 0 -10
-5 -10 -11z"/>
<path d="M440 3350 c-9 -6 -10 -10 -3 -10 6 0 15 5 18 10 8 12 4 12 -15 0z"/>
<path d="M3776 3323 c-6 -14 -5 -15 5 -6 7 7 10 15 7 18 -3 3 -9 -2 -12 -12z"/>
<path d="M550 3300 c13 -24 17 -25 17 -5 0 8 -6 16 -14 19 -11 4 -11 1 -3 -14z"/>
<path d="M3810 3311 c0 -6 4 -13 10 -16 6 -3 7 1 4 9 -7 18 -14 21 -14 7z"/>
<path d="M3790 3290 c0 -5 5 -10 11 -10 5 0 7 5 4 10 -3 6 -8 10 -11 10 -2 0
-4 -4 -4 -10z"/>
<path d="M573 3267 c-3 -6 -1 -7 5 -3 5 3 12 1 14 -6 3 -8 6 -7 10 3 7 17 -19
22 -29 6z"/>
<path d="M3815 3270 c-9 -14 13 -40 34 -39 11 0 9 3 -6 9 -15 6 -21 15 -17 25
7 17 -1 21 -11 5z"/>
<path d="M992 3240 c-16 -27 -15 -37 6 -45 14 -5 15 -4 5 6 -14 14 -18 33 -5
25 4 -2 9 4 9 15 2 24 1 24 -15 -1z"/>
<path d="M615 3230 c-3 -5 -1 -10 4 -10 6 0 11 5 11 10 0 6 -2 10 -4 10 -3 0
-8 -4 -11 -10z"/>
<path d="M1260 3209 c0 -5 5 -7 10 -4 6 3 10 8 10 11 0 2 -4 4 -10 4 -5 0 -10
-5 -10 -11z"/>
<path d="M4056 3197 c3 -10 9 -15 12 -12 3 3 0 11 -7 18 -10 9 -11 8 -5 -6z"/>
<path d="M1040 3190 c-9 -6 -10 -10 -3 -10 6 0 15 5 18 10 8 12 4 12 -15 0z"/>
<path d="M3633 3185 c-8 -22 2 -29 24 -15 16 10 16 11 1 6 -20 -6 -25 10 -5
17 9 4 9 6 -1 6 -7 1 -15 -6 -19 -14z"/>
<path d="M3970 3189 c0 -5 5 -7 10 -4 6 3 10 8 10 11 0 2 -4 4 -10 4 -5 0 -10
-5 -10 -11z"/>
<path d="M629 3173 c-13 -16 -12 -17 4 -4 9 7 17 15 17 17 0 8 -8 3 -21 -13z"/>
<path d="M3856 3172 c-2 -4 -1 -14 4 -22 7 -11 9 -9 7 8 -1 24 -3 26 -11 14z"/>
<path d="M4016 3171 c-4 -5 4 -7 16 -3 14 3 19 1 14 -6 -5 -8 -1 -10 9 -5 13
5 14 7 3 14 -17 11 -35 11 -42 0z"/>
<path d="M1228 3163 c6 -2 9 -10 6 -15 -4 -7 -2 -8 5 -4 13 9 5 26 -12 25 -9
0 -8 -2 1 -6z"/>
<path d="M1060 3136 c0 -2 8 -10 18 -17 15 -13 16 -12 3 4 -13 16 -21 21 -21
13z"/>
<path d="M1240 3130 c-12 -7 -10 -9 7 -7 12 0 19 5 17 9 -6 10 -6 10 -24 -2z"/>
<path d="M3845 3120 c-3 -6 1 -7 9 -4 18 7 21 14 7 14 -6 0 -13 -4 -16 -10z"/>
<path d="M1045 3110 c3 -5 11 -10 16 -10 6 0 7 5 4 10 -3 6 -11 10 -16 10 -6
0 -7 -4 -4 -10z"/>
<path d="M1196 3109 c3 -5 10 -6 16 -3 7 5 9 1 5 -9 -3 -9 -2 -19 2 -21 5 -3
8 4 7 16 -1 12 -9 22 -19 24 -9 1 -15 -2 -11 -7z"/>
<path d="M1175 3090 c-3 -5 -1 -10 4 -10 6 0 11 5 11 10 0 6 -2 10 -4 10 -3 0
-8 -4 -11 -10z"/>
<path d="M4025 3070 c-3 -6 1 -7 9 -4 18 7 21 14 7 14 -6 0 -13 -4 -16 -10z"/>
<path d="M1077 3043 c-10 -9 -9 -23 1 -23 5 0 9 7 9 15 0 17 -1 18 -10 8z"/>
<path d="M1191 2993 c13 -15 12 -15 -8 -4 -19 9 -22 9 -17 -3 3 -8 13 -13 21
-12 21 3 26 36 6 36 -13 0 -13 -2 -2 -17z"/>
<path d="M620 2994 c0 -3 14 -22 30 -41 17 -18 30 -31 30 -27 0 3 12 -8 27
-25 15 -17 34 -31 42 -31 10 0 8 6 -8 18 -12 9 -45 38 -72 65 -27 26 -49 45
-49 41z"/>
<path d="M3915 2890 c6 -10 4 -12 -11 -6 -15 6 -17 5 -6 -5 9 -9 15 -10 23 -2
8 8 7 13 -2 18 -8 6 -10 4 -4 -5z"/>
<path d="M684 2848 c9 -5 23 -5 32 0 12 6 7 9 -16 9 -23 0 -28 -3 -16 -9z"/>
<path d="M3826 2692 c-3 -5 1 -9 9 -9 8 0 12 4 9 9 -3 4 -7 8 -9 8 -2 0 -6 -4
-9 -8z"/>
<path d="M1080 2655 c7 -8 16 -12 21 -9 5 3 9 1 9 -5 0 -5 9 -8 20 -6 11 2 20
0 20 -6 0 -5 8 -9 17 -9 15 0 14 2 -2 14 -11 8 -23 12 -27 10 -5 -3 -8 0 -8 6
0 6 -4 9 -9 5 -5 -3 -12 -1 -16 5 -3 5 -13 10 -22 10 -13 0 -13 -3 -3 -15z"/>
<path d="M1120 2610 c-12 -7 -10 -9 7 -7 12 0 19 5 17 9 -6 10 -6 10 -24 -2z"/>
<path d="M3907 2587 c-7 -18 40 -77 61 -76 13 0 12 2 -4 9 -23 9 -56 54 -47
64 10 10 25 7 18 -4 -3 -6 1 -13 9 -16 9 -3 13 -11 9 -18 -3 -6 -2 -7 2 -3 15
13 14 36 -1 30 -9 -3 -14 0 -12 8 4 18 -28 24 -35 6z"/>
<path d="M715 2490 c-2 -4 11 -6 30 -6 18 0 31 3 28 6 -7 7 -54 7 -58 0z"/>
<path d="M3975 2490 c3 -5 11 -10 16 -10 6 0 7 5 4 10 -3 6 -11 10 -16 10 -6
0 -7 -4 -4 -10z"/>
<path d="M659 2473 c-1 -5 -1 -16 0 -25 1 -10 -2 -18 -8 -18 -5 0 -15 8 -21
18 -11 16 -11 16 -6 0 6 -20 -34 -36 -55 -22 -7 4 -9 3 -6 -3 4 -6 0 -14 -9
-17 -15 -6 -14 -9 1 -34 17 -25 40 -44 58 -48 4 -1 13 -2 20 -3 7 -1 5 -6 -5
-12 -10 -5 -18 -18 -18 -29 0 -16 4 -17 30 -10 30 9 91 50 74 50 -11 0 18 20
29 20 5 0 5 -5 1 -12 -5 -7 -3 -8 6 -3 8 5 32 10 55 11 61 5 79 10 83 23 3 10
0 10 -16 2 -12 -6 -44 -13 -71 -15 l-51 -4 4 39 c3 26 -1 39 -10 43 -8 3 -14
15 -14 26 0 22 -15 27 -26 8 -5 -7 -3 -8 6 -3 9 5 11 4 6 -4 -9 -14 -26 -5
-26 15 0 14 -29 21 -31 7z"/>
<path d="M4005 2470 c-4 -6 -11 -7 -17 -4 -7 4 -8 2 -4 -4 10 -16 23 -15 30 3
6 17 0 20 -9 5z"/>
<path d="M743 2446 c-1 -12 1 -15 4 -8 3 6 8 10 12 8 4 -3 8 1 8 8 0 22 -23
14 -24 -8z"/>
<path d="M3995 2430 c-3 -5 -1 -10 4 -10 6 0 11 5 11 10 0 6 -2 10 -4 10 -3 0
-8 -4 -11 -10z"/>
<path d="M771 2414 c0 -11 3 -14 6 -6 3 7 2 16 -1 19 -3 4 -6 -2 -5 -13z"/>
<path d="M1170 2410 c0 -5 5 -10 11 -10 5 0 7 5 4 10 -3 6 -8 10 -11 10 -2 0
-4 -4 -4 -10z"/>
<path d="M4033 2397 c-8 -16 -8 -28 -1 -38 8 -11 9 -10 4 4 -3 9 -2 17 2 17 4
0 8 9 9 20 2 26 -1 25 -14 -3z"/>
<path d="M4055 2350 c3 -5 8 -10 11 -10 2 0 4 5 4 10 0 6 -5 10 -11 10 -5 0
-7 -4 -4 -10z"/>
<path d="M4024 2333 c4 -4 16 -8 28 -10 28 -4 18 6 -12 12 -12 2 -20 1 -16 -2z"/>
<path d="M4074 2309 c-3 -6 -2 -15 3 -20 5 -5 9 -1 9 11 0 23 -2 24 -12 9z"/>
<path d="M4045 2270 c-6 -9 1 -14 18 -11 12 2 8 -17 -5 -22 -10 -4 -10 -6 -1
-6 16 -1 24 14 17 33 -7 18 -20 21 -29 6z"/>
<path d="M576 2255 c4 -8 11 -15 16 -15 6 0 5 6 -2 15 -7 8 -14 15 -16 15 -2
0 -1 -7 2 -15z"/>
<path d="M542 2248 c2 -6 10 -13 16 -14 7 -1 8 0 2 3 -5 2 -8 9 -4 14 3 5 0 9
-6 9 -7 0 -10 -5 -8 -12z"/>
<path d="M630 2245 c0 -8 2 -15 4 -15 2 0 6 7 10 15 3 8 1 15 -4 15 -6 0 -10
-7 -10 -15z"/>
<path d="M650 2229 c0 -5 5 -7 10 -4 6 3 10 8 10 11 0 2 -4 4 -10 4 -5 0 -10
-5 -10 -11z"/>
<path d="M665 2210 c-4 -6 -11 -7 -17 -4 -7 4 -8 2 -4 -5 6 -9 11 -9 22 0 14
11 18 19 10 19 -3 0 -8 -5 -11 -10z"/>
<path d="M737 2149 c7 -7 15 -10 18 -7 3 3 -2 9 -12 12 -14 6 -15 5 -6 -5z"/>
<path d="M893 2055 c0 -8 4 -12 9 -9 5 3 6 10 3 15 -9 13 -12 11 -12 -6z"/>
<path d="M1060 1976 c0 -4 16 -6 35 -4 19 2 37 0 39 -4 3 -5 3 -3 2 3 -2 14
-76 19 -76 5z"/>
<path d="M4216 1921 c-4 -5 -2 -12 4 -16 5 -3 10 -4 10 0 0 3 9 1 20 -5 16 -9
18 -8 14 5 -4 9 -9 13 -12 11 -3 -3 -11 -1 -18 5 -8 6 -14 6 -18 0z"/>
<path d="M904 1848 c-4 -7 -4 -10 1 -6 4 4 14 0 22 -10 13 -15 13 -15 3 6 -12
25 -16 27 -26 10z"/>
<path d="M1052 1587 c-8 -9 -8 -17 0 -27 8 -13 9 -12 5 2 -3 9 -1 19 6 21 7 2
9 7 6 11 -3 4 -11 1 -17 -7z"/>
<path d="M1196 1577 c3 -10 9 -15 12 -12 3 3 0 11 -7 18 -10 9 -11 8 -5 -6z"/>
<path d="M895 1571 c-3 -5 -2 -12 3 -15 5 -3 9 1 9 9 0 17 -3 19 -12 6z"/>
<path d="M955 1570 c-3 -5 -2 -18 4 -27 7 -14 9 -12 8 10 -2 30 -3 31 -12 17z"/>
<path d="M1400 1560 c6 -11 12 -20 14 -20 2 0 2 9 -1 20 -3 11 -9 20 -15 20
-5 0 -4 -9 2 -20z"/>
<path d="M1030 1551 c0 -6 4 -13 10 -16 6 -3 7 1 4 9 -7 18 -14 21 -14 7z"/>
<path d="M1454 1548 c-3 -5 0 -7 8 -6 7 2 12 -5 12 -15 -2 -15 1 -16 13 -5 10
8 11 14 4 16 -6 2 -9 7 -7 11 3 4 -2 8 -10 8 -8 0 -17 -4 -20 -9z"/>
<path d="M896 1528 c3 -5 10 -6 15 -3 13 9 11 12 -6 12 -8 0 -12 -4 -9 -9z"/>
<path d="M935 1530 c3 -5 8 -10 11 -10 2 0 4 5 4 10 0 6 -5 10 -11 10 -5 0 -7
-4 -4 -10z"/>
<path d="M1510 1509 c0 -5 5 -7 10 -4 6 3 10 8 10 11 0 2 -4 4 -10 4 -5 0 -10
-5 -10 -11z"/>
<path d="M1575 1509 c-4 -6 -5 -12 -2 -15 2 -3 7 2 10 11 7 17 1 20 -8 4z"/>
<path d="M1663 1508 c-15 -25 -11 -36 11 -30 18 5 19 7 3 10 -14 3 -16 7 -6
18 6 8 9 14 6 14 -3 0 -9 -6 -14 -12z"/>
<path d="M1536 1492 c-3 -5 1 -9 9 -9 8 0 12 4 9 9 -3 4 -7 8 -9 8 -2 0 -6 -4
-9 -8z"/>
<path d="M1590 1495 c0 -7 30 -13 34 -7 3 4 -4 9 -15 9 -10 1 -19 0 -19 -2z"/>
<path d="M1741 1454 c4 -21 -2 -28 -11 -14 -6 9 -10 11 -10 3 0 -7 -7 -10 -17
-6 -10 3 -15 3 -11 -2 10 -10 67 -14 73 -5 3 4 -2 14 -11 21 -8 7 -14 8 -13 3z"/>
<path d="M1787 1379 c6 -23 9 -24 16 -5 3 8 0 17 -7 19 -10 4 -12 -1 -9 -14z"/>
<path d="M1795 1219 c-4 -6 -5 -12 -2 -15 2 -3 7 2 10 11 7 17 1 20 -8 4z"/>
<path d="M1874 1005 c0 -14 3 -25 7 -25 3 0 7 11 7 25 0 14 -4 25 -7 25 -4 0
-7 -11 -7 -25z"/>
<path d="M1873 954 c4 -4 1 -14 -6 -23 -11 -14 -10 -15 8 -1 11 8 21 15 23 16
2 1 -5 5 -15 8 -9 4 -14 4 -10 0z"/>
<path d="M1889 913 c-1 -5 -1 -12 0 -17 1 -5 -5 -6 -14 -2 -9 3 -13 2 -10 -3
3 -6 14 -9 25 -8 13 1 16 5 10 13 -6 6 -7 14 -3 17 3 4 3 7 0 7 -4 0 -8 -3 -8
-7z"/>
<path d="M1890 810 c0 -5 5 -10 10 -10 6 0 10 5 10 10 0 6 -4 10 -10 10 -5 0
-10 -4 -10 -10z"/>
<path d="M1844 749 c-4 -8 -3 -9 4 -5 7 4 12 1 12 -8 0 -8 4 -17 9 -20 5 -4 7
3 4 14 -7 26 -19 34 -29 19z"/>
<path d="M1798 683 c7 -3 16 -2 19 1 4 3 -2 6 -13 5 -11 0 -14 -3 -6 -6z"/>
<path d="M3075 590 c-3 -5 -1 -10 4 -10 6 0 11 5 11 10 0 6 -2 10 -4 10 -3 0
-8 -4 -11 -10z"/>
<path d="M3130 591 c0 -6 4 -13 10 -16 6 -3 7 1 4 9 -7 18 -14 21 -14 7z"/>
<path d="M3106 568 c5 -7 2 -9 -9 -5 -11 4 -14 2 -11 -8 5 -11 10 -12 24 -3
19 12 18 28 -1 28 -6 0 -7 -5 -3 -12z"/>
<path d="M2957 534 c-3 -3 -3 -13 1 -22 5 -15 4 -15 -11 -3 -11 9 -17 10 -17
2 0 -6 5 -11 10 -11 6 0 13 0 18 0 4 0 8 9 8 20 1 22 0 23 -9 14z"/>
<path d="M2910 495 c0 -8 4 -15 10 -15 5 0 7 7 4 15 -4 8 -8 15 -10 15 -2 0
-4 -7 -4 -15z"/>
<path d="M2810 450 c-12 -7 -10 -9 7 -7 12 0 19 5 17 9 -6 10 -6 10 -24 -2z"/>
<path d="M2778 428 c8 -8 9 -15 1 -25 -8 -9 -8 -13 -1 -13 13 0 21 21 14 38
-2 6 -9 12 -15 12 -8 0 -7 -4 1 -12z"/>
<path d="M3375 430 c-3 -5 -1 -10 4 -10 6 0 11 5 11 10 0 6 -2 10 -4 10 -3 0
-8 -4 -11 -10z"/>
<path d="M2753 409 c-2 -23 3 -25 10 -4 4 8 3 16 -1 19 -4 3 -9 -4 -9 -15z"/>
<path d="M2713 394 c4 -4 1 -14 -6 -23 -11 -14 -10 -15 8 -1 11 8 21 15 23 16
2 1 -5 5 -15 8 -9 4 -14 4 -10 0z"/>
<path d="M3950 341 c0 -7 -4 -10 -8 -7 -5 3 -9 -2 -9 -10 0 -13 2 -13 16 0 8
9 12 19 8 22 -4 4 -7 2 -7 -5z"/>
</g>
</svg>
